<?xml version="1.0" encoding="utf-8"?>
<!-- Generator: Adobe Illustrator 15.0.0, SVG Export Plug-In . SVG Version: 6.00 Build 0)  -->
<!DOCTYPE svg PUBLIC "-//W3C//DTD SVG 1.1//EN" "http://www.w3.org/Graphics/SVG/1.1/DTD/svg11.dtd">
<svg version="1.1" id="Layer_1" xmlns="http://www.w3.org/2000/svg" xmlns:xlink="http://www.w3.org/1999/xlink" x="0px" y="0px"
	 width="100px" height="100px" viewBox="0 0 100 100" enable-background="new 0 0 100 100" xml:space="preserve">
<g>
	<path fill="#002A41" d="M10.416,0.875c13.18,7.581,26.402,15.099,39.536,22.755c-4.366,2.542-8.752,5.044-13.132,7.559
		c-4.414-2.54-8.823-5.083-13.244-7.607c-0.011,5.075-0.011,10.149,0,15.225c-4.385,2.511-8.751,5.061-13.157,7.534
		C10.4,31.187,10.407,16.031,10.416,0.875z"/>
	<path fill="#002A41" d="M50.069,23.718c4.43,2.379,8.734,4.993,13.117,7.464c4.428,2.551,8.862,5.094,13.293,7.635
		c4.373,2.495,8.708,5.055,13.105,7.498c0.017,17.604,0,35.208,0.009,52.811c-13.192-7.579-26.4-15.136-39.562-22.762
		c0.046-5.057,0.042-10.114,0.003-15.169l0.048,0.004c4.312,2.621,8.742,5.051,13.101,7.596c4.433,2.538,8.85,5.107,13.294,7.627
		c0.021-5.086,0.009-10.174,0.005-15.26c-0.016-2.39,0.063-4.781-0.031-7.169c-2.273-1.4-4.625-2.667-6.929-4.011
		c-6.491-3.751-13.002-7.46-19.488-11.214C50.102,33.753,50.024,28.735,50.069,23.718z"/>
	<path fill="#002A41" d="M23.595,53.99c2.263-1.398,4.61-2.654,6.903-4c6.463,3.757,12.962,7.449,19.434,11.193
		c-4.308,2.639-8.751,5.062-13.114,7.608c-4.419-2.533-8.835-5.073-13.249-7.615C23.591,58.78,23.526,56.385,23.595,53.99z"/>
</g>
<g>
	<path fill="#0071B5" d="M49.951,23.635c13.228-7.57,26.418-15.195,39.645-22.768c-0.014,15.151,0.005,30.303-0.012,45.452
		c-4.397-2.442-8.732-5.002-13.105-7.498c0.01-5.081,0.015-10.165,0-15.247c-4.446,2.51-8.847,5.098-13.293,7.613
		c-4.383-2.471-8.687-5.086-13.117-7.465c-0.045,5.018,0.033,10.035-0.035,15.051c-6.522,3.725-13.026,7.476-19.535,11.222
		c-2.293,1.346-4.641,2.602-6.903,4c-0.069,2.395-0.004,4.791-0.026,7.188c0.005,5.074-0.01,10.149,0.009,15.224
		c4.417-2.53,8.828-5.069,13.24-7.609c4.363-2.547,8.807-4.97,13.114-7.607l0.102,0.011c0.039,5.055,0.043,10.112-0.003,15.169
		C36.817,83.95,23.621,91.561,10.404,99.133c0.016-17.595-0.01-35.19,0.014-52.787c4.406-2.474,8.772-5.023,13.157-7.535
		c4.416-2.537,8.83-5.074,13.244-7.616C41.199,28.679,45.585,26.177,49.951,23.635z"/>
	<path fill="#0071B5" d="M69.521,49.986c2.304,1.345,4.655,2.61,6.929,4.012c0.095,2.387,0.016,4.779,0.031,7.169
		c-4.44,2.531-8.863,5.093-13.299,7.633c-4.359-2.545-8.789-4.975-13.102-7.596C56.532,57.421,63.057,53.753,69.521,49.986z"/>
</g>
</svg>
