<?xml version="1.0" encoding="utf-8"?>
<!-- Generator: Adobe Illustrator 15.0.0, SVG Export Plug-In . SVG Version: 6.00 Build 0)  -->
<!DOCTYPE svg PUBLIC "-//W3C//DTD SVG 1.1//EN" "http://www.w3.org/Graphics/SVG/1.1/DTD/svg11.dtd">
<svg version="1.1" id="Layer_1" xmlns="http://www.w3.org/2000/svg" xmlns:xlink="http://www.w3.org/1999/xlink" x="0px" y="0px"
	 width="100px" height="100px" viewBox="0 0 100 100" enable-background="new 0 0 100 100" xml:space="preserve">
<path fill="#4A4A4A" d="M38.997,3.733c13.497-2.918,28.449,4.888,33.558,17.75c4.095,9.23,2.803,20.595-3.507,28.517
	c15.954,8.688,21.419,31.646,11.134,46.598c-2.882,0.562-5.879,0.085-8.803,0.226c6.521-8.005,8.462-19.587,4.242-29.1
	c-3.634-8.32-11.561-14.127-20.129-16.604c-5.029-1.292-10.074-2.521-15.098-3.817c-6.41-1.69-11.25-8.132-10.883-14.788
	c-0.016-6.19,4.383-11.933,10.227-13.828c7.208-2.63,15.881,1.402,18.674,8.51c2.31,4.967,1.038,10.835-2.106,15.13
	c-1.029-0.772-2.053-1.543-3.092-2.294c0.74,3.182,1.648,6.326,2.488,9.487c3.292-0.011,6.584-0.042,9.881-0.084
	c-0.824-0.698-1.648-1.392-2.468-2.09c4.772-6.362,6.253-15.04,3.475-22.537c-3.575-10.137-14.667-16.7-25.277-15.072
	c-10.237,1.212-19.094,9.938-20.08,20.259c-1.486,9.885,4.341,20.238,13.523,24.16c-12.436,7.182-17.566,24.055-11.108,36.906
	c-1.417,0.787-2.83,1.585-4.236,2.389c4.283,0.688,8.583,1.302,12.867,2.01c1.832-3.962,3.459-8.01,5.208-12.006
	c-1.695,0.883-3.349,1.848-5.05,2.73c-3.034-7.078-1.391-15.886,4.41-21.051c4.966-4.59,12.526-6.19,18.868-3.723
	c7.062,2.52,12.353,9.733,11.948,17.329c0.473,9.696-8.552,18.699-18.264,18.107c-11.602-0.038-23.204,0-34.811-0.017
	c0.005-21.436-0.021-42.864,0.016-64.295C14.717,18.805,25.458,6.075,38.997,3.733z"/>
</svg>
