<?xml version="1.0" encoding="utf-8"?>
<!-- Generator: Adobe Illustrator 15.0.0, SVG Export Plug-In . SVG Version: 6.00 Build 0)  -->
<!DOCTYPE svg PUBLIC "-//W3C//DTD SVG 1.1//EN" "http://www.w3.org/Graphics/SVG/1.1/DTD/svg11.dtd">
<svg version="1.1" id="Layer_1" xmlns="http://www.w3.org/2000/svg" xmlns:xlink="http://www.w3.org/1999/xlink" x="0px" y="0px"
	 width="100px" height="100px" viewBox="0 0 100 100" enable-background="new 0 0 100 100" xml:space="preserve">
<path fill="#D6180A" d="M25.776,17.598C48.408,7.753,73.176,4.116,97.623,2.404c-1.446,24.072-5.317,48.362-14.705,70.71
	c-6.92,16.276-25.225,26.279-42.659,24.213c-17.804-1.56-33.537-15.727-36.934-33.27C-0.758,45.867,8.646,25.399,25.776,17.598
	 M42.113,49.83c-4.55-3.876-8.617-8.605-14.124-11.15c2.419,5.604,7.263,9.666,11.15,14.238c-6.708,0.375-13.651,0.06-20.104,2.196
	c6.197,2.827,13.428,1.957,20.093,2.522c-3.931,4.534-8.698,8.654-11.156,14.232c5.463-2.631,9.639-7.209,14.113-11.193
	c0.604,6.703-0.109,13.809,2.473,20.146c2.376-6.377,1.854-13.39,2.338-20.081c4.577,3.859,8.66,8.594,14.189,11.117
	c-2.484-5.562-7.236-9.683-11.172-14.216c6.67-0.582,13.89,0.282,20.104-2.522c-6.459-2.158-13.411-1.827-20.126-2.197
	c3.915-4.583,8.677-8.698,11.231-14.253c-5.566,2.512-9.66,7.285-14.237,11.189c-0.495-6.715,0.054-13.749-2.327-20.154
	C41.971,36.039,42.722,43.138,42.113,49.83z"/>
</svg>
