<?xml version="1.0" encoding="utf-8"?>
<!-- Generator: Adobe Illustrator 15.0.0, SVG Export Plug-In . SVG Version: 6.00 Build 0)  -->
<!DOCTYPE svg PUBLIC "-//W3C//DTD SVG 1.1//EN" "http://www.w3.org/Graphics/SVG/1.1/DTD/svg11.dtd">
<svg version="1.1" id="Layer_1" xmlns="http://www.w3.org/2000/svg" xmlns:xlink="http://www.w3.org/1999/xlink" x="0px" y="0px"
	 width="384px" height="448px" viewBox="0 0 384 448" enable-background="new 0 0 384 448" xml:space="preserve">
<g>
	<path fill="none" stroke="#B35047" d="M32,448"/>
	<path fill="none" stroke="#B35047" d="M64,448"/>
	<path fill="none" stroke="#B35047" d="M96,448"/>
	<path fill="none" stroke="#B35047" d="M128,448"/>
	<path fill="none" stroke="#B35047" d="M160,448"/>
	<path fill="none" stroke="#B35047" d="M192,448"/>
	<path fill="none" stroke="#B35047" d="M224,448"/>
	<path fill="none" stroke="#B35047" d="M256,448"/>
	<path fill="none" stroke="#B35047" d="M288,448"/>
	<path fill="none" stroke="#B35047" d="M320,448"/>
	<path fill="none" stroke="#B35047" d="M352,448"/>
	<path fill="none" stroke="#B35047" d="M384,32"/>
	<path fill="none" stroke="#B35047" d="M0,32"/>
	<path fill="none" stroke="#B35047" d="M384,64"/>
	<path fill="none" stroke="#B35047" d="M384,96"/>
	<path fill="none" stroke="#B35047" d="M0,96"/>
	<path fill="none" stroke="#B35047" d="M384,128"/>
	<path fill="none" stroke="#B35047" d="M0,128"/>
	<path fill="none" stroke="#B35047" d="M384,160"/>
	<path fill="none" stroke="#B35047" d="M0,160"/>
	<path fill="none" stroke="#B35047" d="M384,192"/>
	<path fill="none" stroke="#B35047" d="M0,192"/>
	<path fill="none" stroke="#B35047" d="M384,224"/>
	<path fill="none" stroke="#B35047" d="M0,224"/>
	<path fill="none" stroke="#B35047" d="M384,256"/>
	<path fill="none" stroke="#B35047" d="M0,256"/>
	<path fill="none" stroke="#B35047" d="M384,288"/>
	<path fill="none" stroke="#B35047" d="M0,288"/>
	<path fill="none" stroke="#B35047" d="M384,320"/>
	<path fill="none" stroke="#B35047" d="M0,320"/>
	<path fill="none" stroke="#B35047" d="M384,352"/>
	<path fill="none" stroke="#B35047" d="M0,352"/>
	<path fill="none" stroke="#B35047" d="M384,384"/>
	<path fill="none" stroke="#B35047" d="M0,384"/>
	<path fill="none" stroke="#B35047" d="M384,416"/>
	<path fill="none" stroke="#B35047" d="M0,416"/>
	<line fill="none" stroke="#B35047" x1="384" y1="448" x2="0" y2="448"/>
</g>
<g>
	<g>
		<g>
			<path fill="#F56A56" d="M240.667,344c3,4.333,4.833,4,7.166,3s122.334-41.5,126-42.833s2.5-2.5,1.334-4.334
				S334,243.667,332,240.5s-3-2.5-6.167-1.5l-127.208,33.1C198.625,272.1,237.667,339.667,240.667,344z"/>
			<path fill="#F56A56" d="M384,288.673v-63.598c-14.312,3.813-32.413,8.634-39.559,10.534
				C355.221,250.034,372.075,272.607,384,288.673z"/>
			<path fill="#F56A56" d="M344.318,157.282c-1.961,0.445-45.371,8.29-48.045,8.646c-2.674,0.356-1.783,1.872-0.713,3.387
				l38.199,52.414c0,0,46.708-11.588,49.562-12.212c0.229-0.051,0.457-0.105,0.678-0.16v-6.94
				c-8.49-10.766-31.621-40.077-33.62-42.816C347.974,156.302,346.279,156.837,344.318,157.282z"/>
			<path fill="#F56A56" d="M71.184,74.951c9.4-0.427,10.258,1.712,14.388,7.836L189.328,256.25l130.46-31.253
				c-7.229-10.246-40.043-56.769-43.214-61.208c-3.565-4.992,0.089-7.31,5.883-8.29s55.71-9.359,59.989-9.983
				c4.277-0.624,7.667-2.139,14.619,6.24c3.557,4.287,15.616,19.305,26.935,33.382V104c0-19.833-7.042-36.792-21.125-50.875
				S331.833,32,312,32H72c-19.833,0-36.792,7.042-50.875,21.125C13.047,61.203,7.298,70.231,3.853,80.201
				C27.37,78.269,64.605,75.25,71.184,74.951z"/>
			<path fill="#F56A56" d="M252.434,367.346c-11.002,3.334-15.935,4.987-23.101-5.013c-5.367-7.49-34.39-59.765-48.621-85.535
				c-26.932,7.054-76.221,19.918-90.434,23.333c-13.873,3.333-19.797-4.984-22.076-10.111C66.604,286.425,25.934,198.739,0,142.476
				V344c0,19.834,7.042,36.791,21.125,50.875C35.208,408.958,52.167,416,72,416h240c19.833,0,36.792-7.042,50.875-21.125
				C376.958,380.791,384,363.834,384,344v-23.672C354.539,331.104,259.846,365.1,252.434,367.346z"/>
			<path fill="#F56A56" d="M72.638,88.963c-0.884-1.517-0.632-2.022-3.033-1.896c-2.141,0.113-56.307,4.946-68.848,5.994
				c-0.37,2.608-0.593,5.276-0.691,7.996c12.731,26.062,85.798,176.755,86.208,177.983c0.446,1.337,0.445,1.783,4.344,0.892
				s76.969-18.38,78.529-18.714s2.562-1.226,0.891-4.12"/>
		</g>
	</g>
</g>
</svg>
