<?xml version="1.0" encoding="utf-8"?>
<!-- Generator: Adobe Illustrator 15.0.0, SVG Export Plug-In . SVG Version: 6.00 Build 0)  -->
<!DOCTYPE svg PUBLIC "-//W3C//DTD SVG 1.1//EN" "http://www.w3.org/Graphics/SVG/1.1/DTD/svg11.dtd">
<svg version="1.1" id="Layer_1" xmlns="http://www.w3.org/2000/svg" xmlns:xlink="http://www.w3.org/1999/xlink" x="0px" y="0px"
	 width="100px" height="100px" viewBox="0 0 100 100" enable-background="new 0 0 100 100" xml:space="preserve">
<g>
	<path d="M98.242,49.996c0,26.645-21.598,48.248-48.243,48.248c-26.645,0-48.242-21.604-48.242-48.248
		c0-26.641,21.598-48.24,48.242-48.24C76.645,1.756,98.242,23.354,98.242,49.996z"/>
	<path fill="#FFFFFF" d="M71.094,19.605c-4.902,0.167-9.18,2.873-12.363,6.605c-3.527,4.1-5.869,8.956-7.562,13.919
		c-3.024-2.477-5.352-5.686-10.206-7.081c-3.751-1.077-7.687-0.634-11.311,2.063c-1.712,1.281-2.896,3.216-3.458,5.041
		c-1.455,4.729,1.528,8.942,2.885,10.452l2.965,3.174c0.609,0.623,2.083,2.248,1.365,4.578c-0.775,2.533-3.83,4.17-6.961,3.209
		c-1.4-0.43-3.41-1.473-2.959-2.936c0.185-0.604,0.615-1.057,0.848-1.568c0.209-0.449,0.312-0.781,0.376-0.98
		c0.572-1.865-0.212-4.297-2.211-4.914c-1.869-0.573-3.777-0.117-4.519,2.283c-0.841,2.729,0.468,7.686,7.467,9.842
		c8.202,2.523,15.137-1.945,16.121-7.764c0.62-3.646-1.027-6.361-4.044-9.843l-2.46-2.722c-1.489-1.487-2-4.021-0.458-5.972
		c1.301-1.644,3.152-2.344,6.184-1.52c4.432,1.2,6.402,4.274,9.697,6.753c-1.358,4.462-2.248,8.938-3.052,12.956l-0.494,2.994
		c-2.353,12.344-4.148,19.127-8.821,23.018c-0.939,0.674-2.285,1.672-4.312,1.746c-1.064,0.033-1.409-0.701-1.424-1.02
		c-0.023-0.744,0.606-1.088,1.023-1.422c0.624-0.342,1.57-0.906,1.504-2.717c-0.067-2.137-1.838-3.992-4.396-3.904
		c-1.918,0.064-4.838,1.865-4.729,5.17c0.112,3.412,3.293,5.967,8.088,5.807c2.562-0.09,8.287-1.129,13.925-7.834
		c6.564-7.688,8.402-16.496,9.783-22.943l1.543-8.514c0.854,0.104,1.77,0.172,2.766,0.197c8.176,0.172,12.266-4.06,12.326-7.142
		c0.041-1.864-1.221-3.701-2.992-3.655c-1.266,0.034-2.854,0.878-3.236,2.628c-0.375,1.716,2.6,3.269,0.277,4.777
		c-1.652,1.067-4.611,1.821-8.781,1.209l0.754-4.192c1.551-7.947,3.459-17.719,10.701-17.959c0.529-0.026,2.457,0.021,2.502,1.3
		c0.014,0.424-0.094,0.536-0.592,1.512c-0.512,0.759-0.701,1.41-0.676,2.153c0.07,2.025,1.613,3.362,3.848,3.286
		c2.986-0.1,3.844-3.008,3.795-4.502C79.691,21.663,75.99,19.442,71.094,19.605z"/>
</g>
</svg>
