<?xml version="1.0" encoding="utf-8"?>
<!-- Generator: Adobe Illustrator 15.0.0, SVG Export Plug-In . SVG Version: 6.00 Build 0)  -->
<!DOCTYPE svg PUBLIC "-//W3C//DTD SVG 1.1//EN" "http://www.w3.org/Graphics/SVG/1.1/DTD/svg11.dtd">
<svg version="1.1" id="Layer_1" xmlns="http://www.w3.org/2000/svg" xmlns:xlink="http://www.w3.org/1999/xlink" x="0px" y="0px"
	 width="100px" height="100px" viewBox="0 0 100 100" enable-background="new 0 0 100 100" xml:space="preserve">
<g>
	<g>
		<path d="M80.735,34.683c0,17.325-14.044,31.371-31.369,31.371c-17.324,0-31.367-14.046-31.367-31.371
			c0-17.322,14.043-31.366,31.367-31.366C66.691,3.317,80.735,17.36,80.735,34.683z"/>
		<path fill="#FFFFFF" d="M63.082,14.923c-3.187,0.108-5.968,1.868-8.039,4.295c-2.293,2.666-3.817,5.823-4.917,9.05
			c-1.966-1.611-3.48-3.697-6.636-4.604c-2.438-0.7-4.998-0.412-7.354,1.342c-1.113,0.833-1.883,2.091-2.248,3.277
			c-0.946,3.075,0.994,5.814,1.876,6.796l1.928,2.064c0.396,0.405,1.354,1.462,0.887,2.976c-0.504,1.647-2.49,2.712-4.526,2.087
			c-0.91-0.279-2.217-0.957-1.924-1.909c0.12-0.392,0.4-0.686,0.551-1.019c0.136-0.292,0.203-0.508,0.245-0.638
			c0.372-1.213-0.138-2.794-1.438-3.195c-1.215-0.373-2.456-0.077-2.938,1.484c-0.547,1.775,0.304,4.998,4.855,6.399
			c5.333,1.642,9.842-1.264,10.482-5.048c0.403-2.371-0.668-4.135-2.629-6.399l-1.6-1.77c-0.968-0.967-1.3-2.615-0.298-3.883
			c0.846-1.069,2.049-1.524,4.021-0.988c2.881,0.78,4.163,2.779,6.305,4.391c-0.883,2.901-1.462,5.812-1.984,8.423l-0.321,1.947
			c-1.53,8.027-2.698,12.437-5.736,14.967c-0.611,0.437-1.486,1.087-2.804,1.135c-0.692,0.021-0.916-0.456-0.926-0.663
			c-0.015-0.484,0.394-0.708,0.665-0.925c0.406-0.222,1.021-0.589,0.978-1.766c-0.044-1.389-1.195-2.595-2.858-2.539
			c-1.247,0.042-3.146,1.214-3.075,3.362c0.073,2.219,2.141,3.88,5.259,3.775c1.666-0.058,5.388-0.734,9.054-5.093
			c4.268-4.998,5.463-10.726,6.361-14.918l1.003-5.536c0.555,0.067,1.151,0.112,1.799,0.128c5.315,0.112,7.974-2.64,8.014-4.644
			c0.027-1.212-0.794-2.406-1.945-2.377c-0.823,0.022-1.857,0.571-2.104,1.709c-0.244,1.116,1.69,2.125,0.179,3.106
			c-1.074,0.694-2.998,1.184-5.71,0.787l0.492-2.726c1.007-5.167,2.248-11.521,6.956-11.677c0.345-0.017,1.598,0.014,1.628,0.845
			c0.008,0.276-0.061,0.349-0.385,0.983c-0.332,0.494-0.456,0.917-0.439,1.4c0.045,1.317,1.048,2.186,2.501,2.136
			c1.942-0.065,2.499-1.956,2.468-2.927C68.672,16.261,66.265,14.817,63.082,14.923z"/>
	</g>
	<g>
		<g>
			<path d="M61.013,79.113c3.168,0,5.294,2.29,5.294,5.457c0,2.986-2.166,5.458-5.294,5.458c-3.147,0-5.314-2.472-5.314-5.458
				C55.698,81.403,57.824,79.113,61.013,79.113z M61.013,88.476c2.247,0,3.249-2.044,3.249-3.905c0-1.981-1.205-3.903-3.249-3.903
				c-2.063,0-3.271,1.922-3.271,3.903C57.743,86.432,58.744,88.476,61.013,88.476z"/>
		</g>
		<path d="M55.435,80.083v-0.725h-2.76v-0.991c0-1.41,0.205-2.475,1.859-2.475c0.032,0,0.063,0.003,0.096,0.004
			c0.003,0,0.003-0.005,0.008-0.005c0.457,0.035,0.84-0.34,0.866-0.8l0.033-0.629c-0.388-0.062-0.798-0.124-1.288-0.124
			c-2.84,0-3.494,1.656-3.494,4.191v0.828h-2.454v0.809c0.062,0.42,0.422,0.743,0.86,0.743c0.002,0,0.004,0.002,0.007,0.002h1.587
			v8.87h1.059c0.003,0,0.002-0.001,0.004-0.001c0.438,0,0.8-0.328,0.858-0.753v-8.116h1.922
			C55.052,80.897,55.414,80.536,55.435,80.083z"/>
		<path d="M29.843,79.358c-0.004,0-0.006,0.002-0.011,0.002c-0.405,0-0.797,0.278-0.968,0.654l-2.645,7.971h-0.041l-2.585-7.967
			c-0.169-0.378-0.563-0.658-0.971-0.658c-0.004,0-0.006-0.002-0.01-0.002h-1.34l3.536,9.729c0.123,0.348,0.368,0.879,0.368,1.104
			c0,0.204-0.572,2.575-2.29,2.575c-0.043,0-0.085-0.004-0.128-0.007c-0.438-0.024-0.769,0.281-0.843,0.752l-0.052,0.666
			c0.347,0.061,0.695,0.143,1.31,0.143c2.533,0,3.29-2.311,4.006-4.312l3.843-10.65L29.843,79.358L29.843,79.358z"/>
		<path d="M17.628,81.476c-1.587-0.811-3.322-1.363-3.354-2.996c0.005-1.736,1.6-2.191,2.828-2.188
			c0.005-0.002,0.011-0.002,0.013-0.002c0.534,0,0.96,0.054,1.377,0.145c0.006,0,0.005-0.007,0.012-0.007
			c0.439,0.032,0.809-0.312,0.861-0.746l0.035-0.63c-0.805-0.199-1.647-0.302-2.38-0.302c-2.672,0.016-4.654,1.362-4.661,3.926
			c0.003,2.243,1.516,3.11,3.14,3.898c1.595,0.767,3.341,1.399,3.355,3.249c-0.01,1.932-1.872,2.644-3.156,2.646
			c-0.751-0.003-1.566-0.19-2.253-0.407c-0.431-0.071-0.784,0.31-0.839,0.812l-0.059,0.562c0.944,0.306,1.912,0.571,2.886,0.571
			c0,0,0.001,0,0.003,0c0.003,0,0.005,0,0.01,0c2.992-0.022,5.317-1.215,5.326-4.313C20.768,83.302,19.246,82.299,17.628,81.476z"/>
		<path d="M46.688,89.783c0.001,0,0.001-0.001,0.003-0.001c0.415,0,0.76-0.29,0.849-0.68v-6.002c0-2.27-0.961-3.987-3.619-3.987
			c-0.939,0-2.513,0.532-3.229,2.024c-0.552-1.411-1.758-2.024-2.963-2.024c-1.534,0-2.576,0.552-3.311,1.759h-0.042v-0.648
			c-0.007-0.478-0.392-0.862-0.871-0.862c-0.003,0-0.005-0.003-0.009-0.003h-0.919v10.425h1.04c0.001,0,0.001-0.001,0.002-0.001
			c0.481,0,0.872-0.39,0.872-0.87c0-0.014,0.005-0.019,0.008-0.027v-4.354c0-1.942,0.775-3.864,2.737-3.864
			c1.554,0,1.861,1.615,1.861,2.903v6.213h1.055c0.001,0,0.001-0.001,0.003-0.001c0.454,0,0.823-0.349,0.863-0.792v-4.46
			c0-1.942,0.777-3.863,2.738-3.863c1.554,0,1.86,1.614,1.86,2.901v6.214L46.688,89.783L46.688,89.783z"/>
		<path d="M76.38,89.783c0.002,0,0.002-0.001,0.003-0.001c0.468,0,0.846-0.369,0.867-0.831v-5.36c0-2.801-1.207-4.478-3.905-4.478
			c-1.45,0-2.839,0.716-3.412,1.902h-0.041v-0.779c0-0.002-0.002-0.002-0.002-0.004c0-0.481-0.39-0.873-0.871-0.873
			c-0.004,0-0.006-0.002-0.01-0.002H68.03v10.425h1.057c0,0,0-0.001,0.002-0.001c0.457,0,0.828-0.354,0.864-0.802v-4.021
			c0-2.533,0.982-4.292,3.168-4.292c1.677,0.103,2.207,1.288,2.207,3.72v5.396L76.38,89.783L76.38,89.783z"/>
		<path d="M86.723,79.358c-0.003,0-0.004,0.002-0.01,0.002c-0.404,0-0.798,0.278-0.968,0.654l-2.643,7.971H83.06l-2.586-7.967
			c-0.169-0.378-0.563-0.658-0.971-0.658c-0.003,0-0.006-0.002-0.009-0.002h-1.34l3.536,9.729c0.122,0.348,0.369,0.879,0.369,1.104
			c0,0.204-0.573,2.575-2.291,2.575c-0.043,0-0.085-0.004-0.128-0.007c-0.437-0.024-0.768,0.281-0.843,0.752l-0.051,0.666
			c0.348,0.061,0.695,0.143,1.308,0.143c2.535,0,3.291-2.311,4.007-4.312l3.843-10.65L86.723,79.358L86.723,79.358z"/>
	</g>
</g>
</svg>
