<?xml version="1.0" encoding="utf-8"?>
<!-- Generator: Adobe Illustrator 15.0.0, SVG Export Plug-In . SVG Version: 6.00 Build 0)  -->
<!DOCTYPE svg PUBLIC "-//W3C//DTD SVG 1.1//EN" "http://www.w3.org/Graphics/SVG/1.1/DTD/svg11.dtd">
<svg version="1.1" id="Layer_1" xmlns="http://www.w3.org/2000/svg" xmlns:xlink="http://www.w3.org/1999/xlink" x="0px" y="0px"
	 width="100px" height="100px" viewBox="0 0 100 100" enable-background="new 0 0 100 100" xml:space="preserve">
<radialGradient id="ellipse10_1_" cx="216.0684" cy="733.7373" r="63.7861" gradientTransform="matrix(1 0 0 1 -185.48 -700.3066)" gradientUnits="userSpaceOnUse">
	<stop  offset="0" style="stop-color:#FFFFFF"/>
	<stop  offset="0.5" style="stop-color:#4C6B97"/>
	<stop  offset="1" style="stop-color:#000000"/>
</radialGradient>
<ellipse id="ellipse10" fill="url(#ellipse10_1_)" cx="50" cy="50" rx="48.575" ry="25.553"/>
<ellipse id="ellipse12" fill="#6181B6" cx="50" cy="50" rx="46.677" ry="23.654"/>
<g id="g14">
	<path id="path16" fill="#FFFFFF" d="M59.283,59.545l2.315-11.917c0.521-2.69,0.088-4.696-1.291-5.963
		c-1.336-1.228-3.604-1.824-6.934-1.824h-4.01l1.148-5.903c0.043-0.223-0.017-0.453-0.161-0.628
		c-0.144-0.175-0.358-0.276-0.586-0.276h-5.534c-0.363,0-0.675,0.257-0.745,0.614l-2.458,12.65
		c-0.224-1.423-0.775-2.646-1.657-3.656c-1.623-1.859-4.191-2.801-7.632-2.801H21.015c-0.364,0-0.677,0.258-0.746,0.614
		l-4.977,25.608c-0.043,0.222,0.015,0.449,0.161,0.625c0.144,0.176,0.357,0.277,0.584,0.277h5.579c0.363,0,0.676-0.259,0.745-0.615
		l1.204-6.192h4.153c2.179,0,4.008-0.235,5.438-0.701c1.461-0.476,2.806-1.281,3.991-2.392c0.958-0.881,1.75-1.865,2.358-2.93
		l-0.994,5.117c-0.043,0.223,0.015,0.453,0.159,0.627c0.145,0.176,0.359,0.277,0.586,0.277h5.534c0.363,0,0.675-0.258,0.745-0.614
		l2.731-14.056h3.798c1.619,0,2.092,0.321,2.222,0.461c0.116,0.126,0.36,0.571,0.087,1.975l-2.201,11.331
		c-0.043,0.224,0.016,0.453,0.159,0.628c0.146,0.176,0.36,0.277,0.586,0.277h5.622C58.901,60.159,59.214,59.901,59.283,59.545z
		 M33.625,49.699c-0.348,1.786-1.002,3.061-1.947,3.786c-0.959,0.738-2.495,1.113-4.562,1.113h-2.473l1.788-9.199h3.196
		c2.349,0,3.295,0.502,3.674,0.922C33.83,46.907,33.94,48.075,33.625,49.699z"/>
	<path id="path18" fill="#FFFFFF" d="M82.949,42.643c-1.623-1.859-4.189-2.801-7.632-2.801H64.59c-0.36,0-0.675,0.257-0.743,0.614
		l-4.978,25.607c-0.043,0.223,0.016,0.451,0.159,0.627c0.145,0.175,0.359,0.275,0.586,0.275h5.578c0.363,0,0.676-0.258,0.744-0.613
		l1.205-6.193h4.15c2.18,0,4.009-0.237,5.439-0.701c1.459-0.477,2.806-1.282,3.99-2.391c0.989-0.909,1.805-1.932,2.42-3.032
		c0.615-1.103,1.059-2.332,1.315-3.655C85.093,47.118,84.585,44.514,82.949,42.643z M77.165,49.699
		c-0.348,1.786-1.003,3.061-1.946,3.786c-0.96,0.738-2.495,1.113-4.563,1.113h-2.471l1.787-9.198h3.195
		c2.35,0,3.295,0.502,3.675,0.922C77.368,46.907,77.479,48.075,77.165,49.699z"/>
</g>
<g id="g20">
	<path id="path22" d="M29.646,44.642c2.12,0,3.532,0.391,4.239,1.174c0.705,0.781,0.873,2.125,0.504,4.028
		c-0.385,1.982-1.128,3.396-2.229,4.243c-1.101,0.849-2.776,1.272-5.025,1.272h-3.394l2.083-10.717H29.646L29.646,44.642z
		 M16.055,66.207h5.579l1.323-6.807h4.778c2.108,0,3.843-0.224,5.204-0.666s2.6-1.185,3.713-2.228
		c0.935-0.86,1.69-1.809,2.271-2.845c0.579-1.036,0.99-2.178,1.232-3.428c0.59-3.035,0.145-5.4-1.335-7.094
		c-1.48-1.693-3.833-2.54-7.061-2.54H21.032L16.055,66.207z"/>
	<path id="path24" d="M44.251,33.793h5.534l-1.323,6.808h4.931c3.102,0,5.242,0.542,6.418,1.623c1.18,1.082,1.532,2.837,1.062,5.26
		L58.557,59.4h-5.623l2.201-11.332c0.252-1.289,0.159-2.168-0.275-2.637c-0.437-0.468-1.36-0.703-2.776-0.703H47.66l-2.85,14.669
		h-5.535L44.251,33.793z"/>
	<path id="path26" d="M73.186,44.642c2.119,0,3.531,0.391,4.237,1.174c0.705,0.781,0.873,2.125,0.504,4.028
		c-0.386,1.982-1.128,3.396-2.229,4.243c-1.101,0.849-2.774,1.272-5.024,1.272h-3.395l2.084-10.717H73.186L73.186,44.642z
		 M59.593,66.207h5.579l1.323-6.807h4.778c2.106,0,3.842-0.224,5.203-0.666s2.599-1.185,3.713-2.228
		c0.935-0.86,1.69-1.809,2.27-2.845s0.99-2.178,1.232-3.428c0.591-3.035,0.146-5.4-1.334-7.094c-1.479-1.693-3.834-2.54-7.062-2.54
		H64.57L59.593,66.207z"/>
</g>
</svg>
