<?xml version="1.0" encoding="utf-8"?>
<!-- Generator: Adobe Illustrator 15.0.0, SVG Export Plug-In . SVG Version: 6.00 Build 0)  -->
<!DOCTYPE svg PUBLIC "-//W3C//DTD SVG 1.1//EN" "http://www.w3.org/Graphics/SVG/1.1/DTD/svg11.dtd">
<svg version="1.1" id="Layer_1" xmlns="http://www.w3.org/2000/svg" xmlns:xlink="http://www.w3.org/1999/xlink" x="0px" y="0px"
	 width="1240px" height="885px" viewBox="0 0 1240 885" enable-background="new 0 0 1240 885" xml:space="preserve">
<text transform="matrix(1 0 0 1 231.5 453)" font-family="'MyriadPro-Regular'" font-size="48">We build Web Sites and Web Applications </text>
<g opacity="0.1">
	<path fill="#52B2E3" d="M277.338,328.531c19.229,32.134,42.083,56.036,65.878,80.894c15.812,16.521,32.143,33.604,48.265,54.108
		l0.096,0.125l0.096,0.126c22.627,28.005,34.097,63.33,32.289,99.474c-1.807,36.399-17.021,70.646-42.809,96.43
		c-27.728,27.728-64.596,42.995-103.801,42.995c-39.216,0-76.083-15.277-103.812-42.995c-25.791-25.793-40.996-60.034-42.813-96.425
		c-1.806-36.144,9.658-71.469,32.28-99.474l0.098-0.126l0.098-0.126c16.117-20.503,32.458-37.592,48.269-54.112
		C235.25,384.554,258.119,360.665,277.338,328.531 M277.338,272.74c-30.583,80.651-81.94,110.534-133.231,175.783
		c-54.273,67.19-50.194,165.893,12.257,228.345c33.404,33.406,77.194,50.111,120.974,50.111c43.794,0,87.574-16.701,120.985-50.111
		c62.442-62.443,66.521-161.146,12.244-228.345C359.278,383.265,307.925,353.387,277.338,272.74L277.338,272.74z"/>
</g>
<g opacity="0.1">
	<polygon fill="#E35425" points="212.221,611.915 206,542.137 274.359,542.137 268.133,611.904 240.138,619.665 	"/>
	<polygon fill="#F16A2F" points="240.18,613.732 262.801,607.462 268.121,547.843 240.18,547.843 	"/>
	<polygon fill="#EBEBEB" points="240.18,573.725 228.856,573.725 228.074,564.959 240.18,564.959 240.18,556.4 240.151,556.4 
		218.722,556.4 218.927,558.695 221.03,582.279 240.18,582.279 	"/>
	<polygon fill="#EBEBEB" points="240.18,595.947 240.143,595.959 230.613,593.385 230.003,586.559 225.37,586.559 221.411,586.559 
		222.612,599.996 240.141,604.863 240.18,604.854 	"/>
	<path fill="#040404" d="M212.361,523.175h4.349v4.296h3.978v-4.296h4.349v13.013h-4.349v-4.356h-3.978v4.356h-4.349V523.175
		L212.361,523.175z"/>
	<path fill="#040404" d="M230.756,527.488h-3.828v-4.313h12.007v4.313h-3.83v8.698h-4.349V527.488L230.756,527.488z"/>
	<path fill="#040404" d="M240.841,523.175h4.537l2.788,4.573l2.785-4.573h4.539v13.013h-4.334v-6.45l-2.99,4.627h-0.073
		l-2.996-4.627v6.45h-4.253v-13.013H240.841z"/>
	<path fill="#040404" d="M257.654,523.175h4.352v8.711h6.113v4.302h-10.465V523.175z"/>
	<polygon fill="#FFFFFF" points="240.151,573.725 240.151,582.279 250.688,582.279 249.695,593.379 240.151,595.955 
		240.151,604.857 257.697,599.996 257.824,598.549 259.834,576.02 260.043,573.725 257.736,573.725 	"/>
	<polygon fill="#FFFFFF" points="240.151,556.4 240.151,561.715 240.151,564.939 240.151,564.959 260.795,564.959 260.795,564.959 
		260.82,564.959 260.992,563.036 261.383,558.695 261.588,556.4 	"/>
</g>
<path fill="#020202" d="M1082.011,232.422"/>
<g opacity="0.1">
	<path fill="#5D87A1" d="M1001.371,309.799h-7.446c-0.262-12.453-0.987-24.166-2.174-35.137h-0.065l-11.336,35.137h-5.668
		l-11.269-35.137h-0.065c-0.836,10.536-1.36,22.248-1.58,35.137h-6.791c0.438-15.676,1.537-30.369,3.295-44.088h9.229l10.743,32.396
		h0.063l10.81-32.396h8.83C999.878,281.777,1001.02,296.476,1001.371,309.799"/>
	<path fill="#5D87A1" d="M1033.662,277.274c-3.032,16.302-7.03,28.149-11.994,35.542c-3.869,5.694-8.105,8.543-12.719,8.543
		c-1.231,0-2.747-0.367-4.547-1.098v-3.931c0.88,0.127,1.912,0.195,3.099,0.195c2.151,0,3.888-0.591,5.207-1.768
		c1.581-1.435,2.371-3.046,2.371-4.832c0-1.222-0.617-3.722-1.845-7.509l-8.172-25.146h7.314l5.864,18.807
		c1.315,4.27,1.866,7.252,1.646,8.951c3.209-8.49,5.448-17.744,6.726-27.758L1033.662,277.274L1033.662,277.274z"/>
	<polygon fill="#F89821" points="1132.778,309.799 1111.624,309.799 1111.624,265.711 1118.742,265.711 1118.742,304.377 
		1132.778,304.377 	"/>
	<path fill="#F89821" d="M1106.089,310.863l-8.177-3.994c0.728-0.594,1.42-1.23,2.046-1.972c3.471-4.045,5.208-10.032,5.208-17.958
		c0-14.584-5.776-21.882-17.331-21.882c-5.668,0-10.084,1.85-13.248,5.554c-3.473,4.051-5.206,10.014-5.206,17.896
		c0,7.75,1.536,13.436,4.612,17.048c2.812,3.264,7.052,4.897,12.72,4.897c2.117,0,4.062-0.259,5.824-0.774l10.648,6.142
		L1106.089,310.863z M1079.597,300.979c-1.803-2.872-2.702-7.483-2.702-13.843c0-11.104,3.404-16.657,10.215-16.657
		c3.561,0,6.172,1.328,7.845,3.981c1.799,2.877,2.7,7.447,2.7,13.718c0,11.19-3.405,16.788-10.215,16.788
		C1083.881,304.967,1081.267,303.641,1079.597,300.979"/>
	<path fill="#F89821" d="M1066.278,297.58c0,3.739-1.388,6.81-4.149,9.211c-2.767,2.391-6.479,3.59-11.134,3.59
		c-4.352,0-8.568-1.381-12.652-4.116l1.911-3.787c3.516,1.741,6.697,2.61,9.553,2.61c2.682,0,4.775-0.592,6.294-1.758
		c1.516-1.178,2.422-2.815,2.422-4.896c0-2.62-1.844-4.855-5.224-6.732c-3.121-1.697-9.355-5.24-9.355-5.24
		c-3.379-2.441-5.072-5.062-5.072-9.381c0-3.572,1.263-6.459,3.787-8.654c2.527-2.201,5.792-3.303,9.787-3.303
		c4.13,0,7.884,1.095,11.268,3.27l-1.719,3.783c-2.896-1.215-5.747-1.825-8.562-1.825c-2.283,0-4.042,0.543-5.269,1.636
		c-1.234,1.083-1.996,2.479-1.996,4.178c0,2.61,1.882,4.877,5.355,6.787c3.16,1.701,9.549,5.312,9.549,5.312
		C1064.547,290.699,1066.278,293.297,1066.278,297.58"/>
	<path fill="#5D87A1" d="M1141.709,250.943c-4.301-0.107-7.632,0.319-10.427,1.492c-0.808,0.319-2.095,0.319-2.206,1.332
		c0.434,0.425,0.484,1.115,0.863,1.706c0.646,1.063,1.771,2.501,2.793,3.248c1.13,0.853,2.26,1.702,3.441,2.448
		c2.096,1.283,4.461,2.024,6.501,3.305c1.188,0.744,2.363,1.704,3.55,2.505c0.59,0.426,0.963,1.119,1.72,1.382v-0.16
		c-0.38-0.479-0.483-1.172-0.857-1.705c-0.537-0.529-1.074-1.013-1.613-1.543c-1.562-2.076-3.496-3.887-5.59-5.379
		c-1.722-1.174-5.485-2.771-6.182-4.738c0,0-0.058-0.057-0.11-0.107c1.186-0.107,2.584-0.535,3.711-0.857
		c1.825-0.479,3.491-0.372,5.374-0.849c0.859-0.214,1.722-0.482,2.584-0.745v-0.482c-0.973-0.958-1.668-2.237-2.688-3.143
		c-2.737-2.343-5.752-4.632-8.868-6.552c-1.668-1.066-3.818-1.755-5.593-2.663c-0.644-0.32-1.718-0.479-2.095-1.015
		c-0.97-1.171-1.509-2.714-2.204-4.101c-1.559-2.927-3.065-6.174-4.406-9.271c-0.967-2.076-1.562-4.152-2.74-6.071
		c-5.54-9.058-11.559-14.541-20.805-19.922c-1.988-1.121-4.354-1.599-6.877-2.186c-1.348-0.056-2.688-0.159-4.03-0.211
		c-0.863-0.375-1.724-1.387-2.476-1.867c-3.064-1.917-10.964-6.07-13.224-0.584c-1.451,3.464,2.15,6.873,3.387,8.63
		c0.914,1.224,2.099,2.611,2.739,3.995c0.376,0.906,0.484,1.866,0.862,2.824c0.858,2.343,1.665,4.954,2.795,7.14
		c0.591,1.119,1.232,2.292,1.984,3.299c0.437,0.59,1.187,0.853,1.348,1.815c-0.749,1.063-0.812,2.662-1.237,3.995
		c-1.935,6.021-1.183,13.479,1.561,17.898c0.856,1.331,2.9,4.262,5.646,3.141c2.418-0.958,1.881-3.994,2.579-6.656
		c0.16-0.644,0.053-1.066,0.375-1.492v0.108c0.752,1.489,1.506,2.923,2.205,4.42c1.667,2.607,4.566,5.325,6.988,7.134
		c1.287,0.962,2.308,2.611,3.922,3.199v-0.162h-0.107c-0.322-0.477-0.804-0.691-1.233-1.063c-0.97-0.959-2.041-2.132-2.798-3.197
		c-2.256-2.982-4.248-6.286-6.019-9.696c-0.86-1.654-1.612-3.465-2.312-5.115c-0.321-0.636-0.321-1.598-0.86-1.916
		c-0.811,1.17-1.986,2.184-2.578,3.618c-1.021,2.292-1.127,5.116-1.506,8.047c-0.216,0.056-0.108,0-0.216,0.105
		c-1.719-0.426-2.312-2.183-2.955-3.67c-1.612-3.787-1.885-9.859-0.484-14.227c0.375-1.117,1.993-4.632,1.344-5.698
		c-0.323-1.016-1.396-1.596-1.987-2.399c-0.697-1.012-1.454-2.288-1.935-3.409c-1.291-2.981-1.938-6.286-3.332-9.269
		c-0.646-1.386-1.774-2.826-2.688-4.102c-1.023-1.438-2.149-2.45-2.957-4.152c-0.268-0.587-0.646-1.546-0.217-2.184
		c0.105-0.427,0.323-0.587,0.756-0.695c0.694-0.585,2.687,0.159,3.384,0.479c1.987,0.796,3.655,1.546,5.319,2.663
		c0.754,0.534,1.562,1.545,2.524,1.814h1.131c1.72,0.37,3.656,0.104,5.271,0.584c2.847,0.904,5.427,2.237,7.737,3.675
		c7.041,4.422,12.846,10.71,16.769,18.219c0.646,1.224,0.918,2.344,1.507,3.619c1.129,2.616,2.528,5.279,3.655,7.833
		c1.127,2.504,2.205,5.058,3.819,7.139c0.803,1.117,4.028,1.703,5.479,2.29c1.072,0.478,2.741,0.905,3.709,1.49
		c1.828,1.117,3.652,2.397,5.374,3.625C1138.86,248.546,1141.548,249.876,1141.709,250.943"/>
	<path fill="#5D87A1" d="M1086.884,204.65c-0.912,0-1.553,0.109-2.203,0.268v0.107h0.105c0.434,0.85,1.186,1.439,1.72,2.185
		c0.436,0.853,0.811,1.701,1.24,2.554c0.052-0.051,0.104-0.107,0.104-0.107c0.756-0.53,1.134-1.382,1.134-2.663
		c-0.323-0.375-0.377-0.745-0.646-1.119C1088.015,205.344,1087.312,205.078,1086.884,204.65"/>
	<path fill="#F89821" d="M1146.833,309.795h1.111v-5.4h-1.673l-1.359,3.682l-1.481-3.682h-1.61v5.4h1.052v-4.111h0.062l1.554,4.111
		h0.801l1.549-4.111v4.111H1146.833z M1137.858,309.795h1.181v-4.485h1.542v-0.915h-4.326v0.915h1.604L1137.858,309.795
		L1137.858,309.795z"/>
</g>
<g opacity="0.1">
	<path fill="#030303" d="M702.588,619.328h-1.436h-10.664v5.354h43.793v-4.993l-7.241-0.361H702.588L702.588,619.328z
		 M708.99,622.611H693.9v-0.998h15.09V622.611L708.99,622.611z"/>
	<path fill="#030303" d="M668.62,641.092h19.542v-32.873H668.62V641.092z M678.639,639.67c-0.621,0-1.127-0.506-1.127-1.125
		c0-0.625,0.508-1.127,1.127-1.127c0.621,0,1.127,0.502,1.127,1.127C679.768,639.164,679.262,639.67,678.639,639.67z
		 M678.828,609.582c0.26,0,0.471,0.207,0.471,0.465c0,0.264-0.213,0.475-0.471,0.475c-0.259,0-0.472-0.213-0.472-0.475
		C678.354,609.789,678.566,609.582,678.828,609.582z M676.016,611.156h5.617v0.453h-5.617V611.156z M671.758,613.225l13.271-0.006
		v22.582c-5.076,0.027-10.755,0.049-13.271,0.027V613.225z"/>
	<polygon fill="#030303" points="686.857,563.074 750.385,563.074 750.271,598.953 729.366,598.826 729.366,604.633 755.83,604.633 
		755.83,558.48 681.414,558.48 681.414,581.861 686.857,581.861 	"/>
	<polygon fill="#030303" points="729.366,615.285 737.873,615.285 737.873,613.146 735.233,613.146 735.233,610.559 
		737.873,610.559 737.873,604.633 729.366,604.633 	"/>
	<path fill="#030303" d="M737.873,608.291v41.986h27.987v-41.986H737.873z M752.457,648.17c-0.744,0-1.347-0.604-1.347-1.35
		c0-0.748,0.603-1.353,1.347-1.353c0.746,0,1.35,0.604,1.35,1.353C753.805,647.564,753.203,648.17,752.457,648.17z M761.817,643.314
		h-19.896v-30.98h19.896V643.314L761.817,643.314z"/>
	<polygon fill="#030303" points="680.475,588.36 723.271,588.36 723.271,614.014 690.488,614.014 690.488,617.785 727.045,617.785 
		727.045,584.59 676.703,584.59 676.703,606.006 680.475,606.006 	"/>
	<path fill="#030303" d="M733.407,596.642"/>
</g>
<path opacity="0.1" fill="#434854" enable-background="new    " d="M526.315,240.63c-5.365,0.306-9.152,1.171-14.624,3.344
	c-7.348,2.923-13.576,6.489-18.588,10.66c-1.34,1.109-4.186,3.979-5.135,5.157c-2.892,3.627-4.454,6.911-4.774,10.04
	c-0.115,1.095,0.016,2.051,0.452,3.352c1.301,3.888,4.637,7.607,10.721,11.945c0.565,0.408,2.013,1.416,3.214,2.252
	c2.395,1.66,3.344,2.349,4.201,3.045c0.666,0.543,0.719,0.443-0.645,1.141c-3.649,1.859-7.14,4.094-9.604,6.168
	c-1.063,0.889-2.725,2.632-3.261,3.421c-1.79,2.625-2.402,5.892-1.582,8.494c0.589,1.865,1.843,3.392,3.144,3.785
	c1.523,0.478,4.087,0.638,5.717,0.354c3.298-0.559,6.068-1.98,8.524-4.369c2.195-2.144,3.582-4.508,4.331-7.424
	c0.888-3.459,0.728-7.17-0.429-9.947c-0.13-0.321-0.229-0.59-0.214-0.604c0.093-0.062,2.572-1.5,3.475-2.013
	c1.737-0.98,1.952-1.104,1.952-1.041c0,0.038-0.069,0.283-0.153,0.559c-0.804,2.563-1.248,6.26-1.003,8.266
	c0.429,3.475,1.959,6.727,3.527,7.483c0.965,0.459,2.388,0.413,3.29-0.114c0.482-0.283,1.05-0.881,1.523-1.593
	c0.513-0.788,1.883-3.565,2.687-5.471c0.353-0.819,0.65-1.509,0.674-1.531c0.021-0.021,0.015,0.154-0.017,0.382
	c-0.214,1.661-0.168,3.852,0.1,4.914c0.397,1.545,1.226,2.357,2.427,2.372c0.964,0.015,2.074-0.765,3.199-2.258
	c1.048-1.399,4.629-8.194,6.459-12.259c0.787-1.753,1.845-4.232,2.401-5.624c0.207-0.528,0.404-0.987,0.438-1.019
	c0.036-0.039,0.084,0.084,0.114,0.268c0.093,0.574,0.728,3.099,0.973,3.826c0.13,0.391,0.62,1.516,1.086,2.494l0.843,1.783
	l-0.153,0.207c-0.084,0.114-0.338,0.467-0.564,0.78c-0.528,0.733-1.791,2.295-3.78,4.66c-2.326,2.784-2.709,3.366-2.717,4.171
	c0,0.711,0.582,1.324,1.438,1.507c0.604,0.122,2.317,0.046,3.229-0.153c2.28-0.488,4.615-1.66,5.954-2.992
	c2.317-2.287,2.686-5.508,1.062-9.336l-0.114-0.268l0.903-1.348c1.461-2.195,2.692-4.309,4.537-7.797
	c0.236-0.443,0.443-0.75,0.458-0.688c0.023,0.062,0.132,0.543,0.245,1.071c0.529,2.434,0.95,3.666,1.914,5.586l0.514,1.018
	l-0.377,0.314c-1.248,1.049-2.623,2.587-3.504,3.91c-1.019,1.529-1.606,2.977-1.806,4.438c-0.254,1.897,0.693,3.176,2.349,3.176
	c0.665,0,2.403-0.574,3.719-1.225c2.137-1.062,3.966-2.746,4.77-4.398c0.437-0.889,0.574-1.485,0.574-2.496
	c0-0.965-0.146-1.789-0.514-2.924c-0.146-0.459-0.254-0.842-0.235-0.856c0.083-0.084,1.545-0.543,2.296-0.728
	c2.398-0.589,5.479-0.658,8.248-0.184c4.5,0.766,7.658,3.107,8.576,6.345c0.246,0.856,0.255,2.005,0.017,2.755
	c-0.365,1.156-1.23,2.205-2.523,3.092c-0.621,0.414-0.713,0.504-0.713,0.688c0,0.321,0.162,0.412,0.638,0.375
	c0.794-0.067,2.005-0.772,2.961-1.737c1.284-1.285,1.844-2.64,1.858-4.444c0.008-2.448-0.996-4.722-2.971-6.695
	c-3.068-3.069-7.913-4.44-13.275-3.743c-1.791,0.229-4.057,0.865-5.549,1.562c-0.521,0.236-0.695,0.283-0.75,0.215
	c-0.215-0.307-1.539-3.1-1.707-3.598c-0.215-0.657-0.488-2.541-0.488-3.443c0-1.171,0.253-2.411,0.88-4.271
	c0.192-0.565,0.345-1.101,0.345-1.201c0-0.275-0.421-0.689-0.863-0.841c-0.552-0.191-2.549-0.191-3.534,0.007
	c-0.752,0.146-1.341,0.368-1.518,0.566c-0.146,0.161-0.611,1.63-0.812,2.556c-0.269,1.232-0.618,2.097-1.799,4.386
	c-1.041,2.034-4.002,7.292-4.246,7.56c-0.068,0.069-0.928-1.683-1.154-2.355c-0.085-0.254-0.207-0.773-0.27-1.147
	c-0.414-2.603-0.307-3.75,0.619-6.559l0.42-1.293l-0.137-0.237c-0.321-0.55-1.232-0.789-2.74-0.726
	c-1.109,0.054-1.69,0.145-2.371,0.367c-0.766,0.245-0.772,0.268-1.147,1.684c-0.185,0.689-0.392,1.424-0.459,1.638
	c-0.254,0.743-2.157,5.098-5.312,12.13c-1.584,3.527-3.497,7.429-3.803,7.759c-0.185,0.199-0.215,0.207-0.283,0.084
	c-0.039-0.076-0.054-0.627-0.03-1.332c0.022-0.955,0.083-1.424,0.275-2.34c0.307-1.4,0.972-4.089,1.676-6.697
	c0.635-2.356,0.658-2.439,0.551-2.822c-0.146-0.553-0.842-1.041-1.606-1.135c-0.528-0.061-0.857,0.023-1.31,0.339
	c-0.229,0.153-0.383,0.222-0.352,0.153c0.115-0.308,0.222-1.776,0.184-2.504c-0.146-2.578-1.277-3.78-3.45-3.652
	c-1.547,0.086-3.513,1.043-5.403,2.619c-0.734,0.612-2.15,2.074-2.632,2.717c-0.26,0.353-0.498,0.566-0.805,0.734
	c-0.236,0.131-2.426,1.332-4.858,2.672l-4.431,2.426l-0.927-0.911c-1.385-1.37-2.387-2.211-5.311-4.454
	c-2.961-2.271-4.813-3.863-5.854-5.012c-1.668-1.844-2.541-3.314-3.022-5.083c-0.177-0.673-0.2-0.873-0.2-2.159
	c0-1.177,0.031-1.545,0.168-2.196c0.444-2.036,1.485-4.078,3.123-6.145c0.711-0.895,2.946-3.115,4.01-3.979
	c3.268-2.655,6.91-4.943,11.608-7.3c5.464-2.74,10.185-4.27,15.29-4.958c1.729-0.23,5.524-0.253,6.933-0.039
	c3.017,0.452,5.136,1.354,6.468,2.748c0.513,0.528,0.834,1.102,1.104,1.936c0.26,0.812,0.298,2.411,0.084,3.451
	c-0.535,2.594-2.005,5.173-4.354,7.614c-3.459,3.597-8.211,6.283-13.521,7.629c-5.203,1.324-9.236,1.232-12.289-0.29
	c-0.873-0.429-1.493-0.88-2.189-1.584c-0.681-0.689-0.834-0.75-1.133-0.444c-0.237,0.229-0.237,0.459-0.015,1.118
	c0.253,0.727,0.628,1.308,1.315,2.02c0.766,0.789,1.677,1.454,2.709,1.981c1.355,0.689,2.449,1.01,4.408,1.286
	c0.926,0.13,4.69,0.13,5.894,0c3.527-0.391,7.314-1.37,10.407-2.686c7.316-3.13,13.194-10.216,14.081-16.966
	c0.216-1.668,0.138-3.413-0.235-4.882c-1.209-4.836-6.308-8.135-13.729-8.877C529.575,240.669,527.134,240.585,526.315,240.63z
	 M524.317,281.993c0.169,0.13,0.198,0.214,0.198,0.566c0,0.85-0.451,2.625-1.354,5.312c-0.543,1.645-2.503,6.733-3.192,8.312
	c-0.855,1.958-1.683,3.175-2.158,3.175c-0.727,0-1.2-1.607-1.2-4.057c0-2.784,0.559-5.18,1.828-7.768
	c0.582-1.193,1.34-2.471,1.93-3.252C521.67,282.543,523.591,281.426,524.317,281.993z M555.856,290.356
	c0.099,0.476,0.12,0.835,0.092,1.362c-0.123,2.104-1.144,3.56-3.187,4.562c-0.694,0.336-0.719,0.344-0.826,0.197
	c-0.405-0.535,0.927-3.627,2.259-5.232c0.412-0.506,1.407-1.531,1.477-1.531C555.701,289.713,555.776,290.004,555.856,290.356z
	 M504.491,294.053c0.259,1.187,0.321,1.714,0.312,3.008c0,2.035-0.329,3.436-1.217,5.242c-1.515,3.062-4.354,5.578-7.269,6.436
	c-0.796,0.236-2.235,0.338-2.755,0.19c-1.225-0.329-1.761-1.53-1.47-3.282c0.55-3.36,2.862-6.067,8.241-9.673
	c1.293-0.865,3.826-2.42,3.957-2.428C504.337,293.541,504.43,293.77,504.491,294.053z M542.731,294.75
	c-0.216,1.521-1.209,2.969-2.907,4.217c-0.927,0.688-1.593,1.002-1.83,0.856c-0.076-0.054,0.062-0.243,0.536-0.772
	c1.76-1.951,2.228-2.504,3.067-3.551c0.506-0.621,0.957-1.203,1.004-1.277C542.753,293.969,542.815,294.189,542.731,294.75z"/>
<g id="Page_1_1_" opacity="0.1">
	<g id="Layer_1_2_">
		<path id="Shape_15_" fill="#181718" d="M353.505,161.946h-5.707l5.937,6.44v3.065h-12.228v-3.59h5.937l-5.937-6.44v-3.07h11.998
			V161.946L353.505,161.946z M339.085,161.946h-5.708l5.938,6.44v3.065h-12.228v-3.59h5.935l-5.935-6.44v-3.07h11.998V161.946
			L339.085,161.946z M324.804,162.091h-6.158v5.621h6.158v3.739h-10.535v-13.1h10.536L324.804,162.091L324.804,162.091z"/>
		<path id="Shape_14_" fill="#1A75B6" d="M305.876,247.626l-6.259-70.194h68.766l-6.264,70.183l-28.161,7.808L305.876,247.626z"/>
		<path id="Shape_13_" fill="#38A9D9" d="M334.001,249.453l22.755-6.311l5.354-59.973h-28.108L334.001,249.453L334.001,249.453z"/>
		<g id="Group_1_" transform="translate(55.000000, 142.000000)">
			<path id="Shape_12_" fill="#FFFFFF" d="M279.001,66.601h11.394l0.785-8.815h-12.179v-8.608h0.029h21.557l-0.205,2.31
				l-2.114,23.725h-19.267V66.601L279.001,66.601z"/>
			<path id="Shape_11_" fill="#EBEBEB" d="M279.052,88.96l-0.037,0.01l-9.588-2.59l-0.613-6.865h-4.658h-3.983l1.206,13.52
				l17.636,4.896l0.039-0.012v-8.957L279.052,88.96L279.052,88.96z"/>
			<path id="Shape_10_" fill="#FFFFFF" d="M289.661,74.847l-1.037,11.527l-9.602,2.594v8.955l17.648-4.891l0.129-1.455l1.5-16.73
				H289.661z"/>
			<path id="Shape_9_" fill="#EBEBEB" d="M279.03,49.178v5.346v3.241v0.021h-20.767h-0.027l-0.173-1.936l-0.392-4.363l-0.206-2.31
				L279.03,49.178L279.03,49.178z"/>
			<path id="Shape_8_" fill="#EBEBEB" d="M279.001,66.603v5.348v3.242v0.021h-9.439h-0.028l-0.172-1.936l-0.393-4.365l-0.206-2.311
				L279.001,66.603L279.001,66.603z"/>
		</g>
	</g>
</g>
<g id="Layer_1_1_" opacity="0.1">
	<g>
		<path fill="#FBAA1B" d="M975.083,523.514c0,0,2.33,8.989,2.662,11.986c0.334,2.996-5.991,9.654-5.991,12.983
			c0,3.328,1.329,9.32,8.654,12.316c7.324,2.997,8.322,10.654,8.322,15.316c0,4.66-2.662,13.646-2.662,13.646
			s-1.664,22.307,7.322,26.3c8.988,3.994,6.991,3.994,8.988,3.994c1.998,0,16.646,5.995,25.301,3.664
			c8.656-2.33,10.985-4.994,10.985-4.994s8.657,0.666,11.319-6.991c2.663-7.656,4.327-23.636,3.328-30.96
			c-0.998-7.325-2.331-16.979,3.661-20.309c5.994-3.329,12.319-7.323,11.32-10.653c-0.999-3.328-6.323-7.988-6.323-7.988
			s-1.333-8.323-0.335-10.32c0.998-1.998,6.991-6.993,3.662-10.654c-3.327-3.662-9.321-3.662-9.321-3.662l-7.656,0.666
			c0,0-12.983-11.651-29.963-10.985c-16.978,0.666-27.632,10.985-27.632,10.985s-5.659-1.997-10.651,0
			C975.08,519.854,974.084,517.855,975.083,523.514z"/>
		<path fill="#E78825" d="M1005.502,573.082c0,0-6.592,10.08-11.428,17.234c-0.748,1.104,4.836,1.182,4.836,1.182L1005.502,573.082z
			"/>
		<path fill="#E78825" d="M1008.641,552.182c0,0-1.985,4.959-3.074,7.586c-1.183,2.857-5.688,4.279-5.688,4.279
			s2.336-2.449,2.336-8.654c0-2.604,3.36-3.639,3.36-3.639L1008.641,552.182z"/>
		<path fill="#E78825" d="M1006.634,554.985c0,0-4.071,4.847-11.631,2.133c-7.562-2.715-8.337-12.409-8.337-15.123
			c0-2.715,14.347,2.714,16.285,3.878C1004.891,547.036,1008.572,551.688,1006.634,554.985z"/>
		<path fill="#E78825" d="M978.076,503.195c0,0,6.979-1.357,11.632,2.326c4.655,3.683,6.01,6.592,6.01,6.592l-7.843,6.217
			c0,0-3.789-1.758-4.952-6.799C981.76,506.491,982.535,504.165,978.076,503.195z"/>
		<path fill="#E78825" d="M1004.599,540.985c-3.006-4.267-7.956-6.125-11.911-6.436c-6.741-0.525-9.941,1.856-9.941,1.856
			s11.041,0.468,14.224,4.646c5.925,7.779,14.567,8.412,15.949,6.703c-1.598,0.079-3.354-0.713-5.238-2.492
			C1006.505,544.153,1005.552,542.34,1004.599,540.985z"/>
		<path fill="#E78825" d="M985.96,556.068c0,0-12.251-4.212-9.923-8.478c2.326-4.266,0.475-6.59,0.475-6.59
			s-6.841,5.104-5.098,10.534c1.071,3.331,2.869,5.743,12.737,10.368c4.732,8.793,0.978,24.617,1.202,24.691
			c0.375,0.125,6.646-3.1,6.218-17.905C991.439,564.146,991.077,557.938,985.96,556.068z"/>
		<path fill="#E78825" d="M1002.012,510.781c-5.136,2.608-12.173,6.244-12.173,6.244l2.771,1.386
			c-0.266,0.428-0.393,0.683-0.393,0.683l2.844,1.293c0,0,6.938,5.027,11.189,8.261c-1.416-4.365-5.578-11.225-5.578-11.225
			S999.492,514.271,1002.012,510.781z"/>
		<path fill="#E78825" d="M1019.077,617.156c-15.789,0-21.138-8.017-21.138-8.017l2.469,6.01
			c0.933,2.599,10.881,10.688,18.645,10.688"/>
		<path fill="#E78825" d="M999.671,603.725c0,0,1.452,8.879,7.269,8.879c4.942,0,6.398-7.5,6.398-9.05L999.671,603.725z"/>
		<path fill="#E78825" d="M989.992,590.336c0.517-1.422,2.325-7.174,2.906-12.408c0.696-6.27,0.442-15.438,0.442-15.438
			s-1.552,6.01-2.909,6.98c-1.355,0.969-3.877,7.561-3.877,7.561s-1.352,9.812-1.994,13.11
			C986.341,590.498,987.839,589.451,989.992,590.336z"/>
		<path fill="#E78825" d="M975.945,551.439c0,0,3.295-1.164,4.267-8.336c0.968-7.175-1.165-13.38-1.165-13.38
			s0.193,9.889-0.969,11.828c-1.164,1.938-2.133,2.521-3.49,5.04C973.229,549.115,975.169,550.664,975.945,551.439z"/>
		<path fill="#88CCED" d="M993.433,518.494"/>
		<path fill="#FDC169" d="M979.88,504.893l-0.673-0.427C977.225,504.533,979.88,504.893,979.88,504.893z"/>
		<path fill="#FBAA1B" d="M1004.694,508.658c0,0-3.103-0.519-4.652-2.844c-1.552-2.326-5.946-6.98-12.951-7.032
			c-7.003-0.052-13.934,1.86-13.934,1.86l6.049,3.822c0.641-0.021,1.759-0.012,3.608,0.05c7.593,0.252,8.761,7.763,8.761,7.763
			l26.755-3.686"/>
		<path fill="#FFFFFF" d="M1007.279,550.132c0,0-3.618,3.619-9.178,2.456c-5.559-1.163-8.92-3.62-9.178-7.886
			c-0.259-4.265,1.164-5.945,1.164-5.945s6.203,1.94,9.177,4.525C1002.239,545.866,1004.436,550.003,1007.279,550.132z"/>
		<path fill="#C9C9C9" d="M1002.9,548.839c0,0-3.141,1.435-6.647,0.268c-4.594-1.532-4.897-6.31-4.897-6.31s-2.818,8.269,5.08,9.859
			c6.336,1.275,10.084-2.396,10.084-2.396L1002.9,548.839z"/>
		<path fill="#463117" d="M1006.508,595.182"/>
		<path fill="#463117" d="M1005.13,506.903c-0.337-7.091,5.476-12.739,7.49-12.979c0.11,1.202-0.112,5.89,1.901,7.33
			c0.586-3.828,2.567-8.049,10.396-10.813c-1.676,4.446-0.224,8.172,0.469,9.897c5.347-4.852,8.946-4.051,8.946-4.051
			s-3.714,6.41-2.262,10.615C1021.34,506.061,1005.183,508.042,1005.13,506.903z"/>
		<path fill="#463117" d="M982.38,517.705c-2.56-2.125-0.651-4.096-0.854-6.51c-0.11-1.283-0.212-2.496-0.637-3.164
			c-2.354-3.722-7.913-4.851-7.97-4.86l-2.607-0.512l1.728-2.021c0.224-0.261,7.316-7.026,18.29-3.483
			c7.677,2.476,13.359,10.871,13.571,11.211l-3.851,1.811c-0.045-0.071-4.537-7.964-11.124-10.088
			c-5.323-1.718-10.229-0.084-12.332,0.988c2.234,0.892,5.155,2.516,6.915,5.295c0.83,1.312,0.972,2.965,1.105,4.564
			c0.179,2.118,0.346,4.118,1.904,5.413L982.38,517.705z"/>
		<path fill="#463117" d="M975.542,548.713c0,0,3.226-4,4.182-11.783c0.375-3.065-0.291-9.112-1.357-11.438
			c0.194,5.719-1.261,11.438-1.261,11.438S976.126,547.55,975.542,548.713z"/>
		<path fill="#463117" d="M992.553,513.665c-0.002-0.009-1.035-4.524-3.9-6.805c-4.041-3.216-8.977-1.505-9.023-1.489l-0.717-2.214
			c0.239-0.077,5.88-1.854,11.077,1.8c5.229,3.674,5.856,7.005,5.912,7.373L992.553,513.665z"/>
		<path fill="#463117" d="M985.674,545.845c0,0-1.691-2.423-1.388-5.087c0.151-1.315,0.761-2.667,1.85-3.146
			c2.023-0.89,2.92,1.403,2.92,1.403S986.208,539.719,985.674,545.845z"/>
		<path fill="#463117" d="M1006.508,595.182"/>
		<path fill="#463117" d="M1004.256,549.537c0.071,0.132,0.107,0.205,0.107,0.205s-5.278,3.962-10.688-0.058
			c-2.896-2.153-2.622-7.481-1.735-9.741c2.308,0.522,4.265,1.466,5.899,2.564c-2.067-1.844-3.876-3.202-3.871-3.232l-2.35-0.665
			l-4.565-1.565c-0.06,0.348-1.725,8.154,3.083,13.475c2.13,2.357,12.12,7.641,16.862-1.393L1004.256,549.537z"/>
		<path fill="#463117" d="M1003.762,550.118c2.973,4.521,10.472,1.938,10.342-2.844c0,0-5.011,2.765-9.438-2.326
			c-2.585-2.974-10.866-11.169-22.096-8.444C990.325,538.209,1000.593,545.295,1003.762,550.118z"/>
		<g>
			<path fill="#463117" d="M1006.508,595.182"/>
		</g>
		<path fill="#463117" d="M981.521,562.884c0.715,0.413,3.235,3.024,3.237,6.931c0,1.957-0.194,11.797-1.165,17.808
			c1.458,0.946,2.475,1.147,3.926,2.114c0.729-6.962,1.248-17.051,1.006-21.123c-0.277-4.644-2.764-7.76-5.068-9.087
			c-0.723-0.416-1.477-0.824-2.236-1.234c-3.947-2.134-8.031-4.341-8.031-8.109c0-2.946,1.146-3.868,2.359-4.848l0.131-0.104
			c0.806-0.65,1.717-1.39,2.258-2.601c1.472-3.312,1.713-11.749,0-13.891c-0.856-1.066-3.146-4.655-2.486-7.066
			c0.25-0.921,0.83-1.604,1.775-2.087c0.996-0.511,2.347-0.771,4.007-0.771c3.262,0,6.88,0.993,8.745,1.584
			c6.67,2.113,14.72,8.209,17.025,10.026c0.066,0.051,0.105,0.08,0.112,0.085l1.476,1.026l-0.923-1.544
			c-0.057-0.097-5.903-9.711-16.358-13.236c-2.033-0.687-6.029-1.837-9.957-1.837c-2.34,0-4.322,0.408-5.895,1.213
			c-1.914,0.979-3.211,2.542-3.749,4.519c-1.32,4.842,2.979,10.233,3.127,10.405c0.501,0.896,0.712,7.396-0.444,9.998
			c-0.159,0.359-0.597,0.712-1.148,1.158c-0.173,0.142-0.367,0.285-0.573,0.441c-1.634,1.232-4.104,3.097-4.104,7.392
			c0,5.877,5.956,9.063,10.743,11.626C980.093,562.094,980.843,562.493,981.521,562.884z"/>
		<g>
			<g>
				<path fill="#463117" d="M982.38,517.705c-2.56-2.125-0.651-4.096-0.854-6.51c-0.11-1.283-0.212-2.496-0.637-3.164
					c-2.354-3.722-7.913-4.851-7.97-4.86l-2.607-0.512l1.728-2.021c0.224-0.261,7.316-7.026,18.29-3.483
					c7.677,2.476,13.359,10.871,13.571,11.211l-3.851,1.811c-0.045-0.071-4.537-7.964-11.124-10.088
					c-5.323-1.718-10.229-0.084-12.332,0.988c2.234,0.892,5.155,2.516,6.915,5.295c0.83,1.312,0.972,2.965,1.105,4.564
					c0.179,2.118,0.346,4.118,1.904,5.413L982.38,517.705z"/>
			</g>
			<g>
				<path fill="#463117" d="M982.298,518.14l-0.166-0.137c-1.897-1.576-1.562-3.128-1.235-4.63c0.148-0.693,0.306-1.409,0.241-2.146
					c-0.104-1.234-0.202-2.4-0.575-2.989c-2.242-3.542-7.666-4.679-7.72-4.688l-3.258-0.639l2.159-2.525
					c0.04-0.047,4.594-4.644,12.306-4.644c2.103,0,4.256,0.35,6.398,1.043c8.013,2.582,13.729,11.287,13.782,11.374l0.23,0.37
					l-4.553,2.141l-0.184-0.289c-0.489-0.836-4.808-7.956-10.916-9.926c-1.5-0.484-3.08-0.729-4.695-0.729
					c-2.926,0-5.298,0.798-6.562,1.332c2.109,0.951,4.669,2.551,6.288,5.104c0.881,1.391,1.023,3.091,1.162,4.732
					c0.172,2.043,0.334,3.965,1.768,5.152l0.539,0.448L982.298,518.14z"/>
			</g>
		</g>
		<g>
			<g>
				<path fill="#463117" d="M992.553,513.665c-0.002-0.009-1.035-4.524-3.9-6.805c-4.041-3.216-8.977-1.505-9.023-1.489
					l-0.717-2.214c0.239-0.077,5.88-1.854,11.077,1.8c5.229,3.674,5.856,7.005,5.912,7.373L992.553,513.665z"/>
			</g>
			<g>
				<path fill="#463117" d="M992.273,514.193l-0.101-0.444c-0.011-0.044-1.024-4.405-3.765-6.585
					c-1.562-1.243-3.444-1.874-5.594-1.874c-1.679,0-2.926,0.4-3.062,0.448l-0.37,0.123l-0.961-2.953l0.368-0.119
					c0.165-0.053,1.662-0.52,3.779-0.52c2.794,0,5.435,0.819,7.643,2.368c5.359,3.768,6.014,7.25,6.07,7.636l0.047,0.305
					L992.273,514.193z M982.814,504.516c2.297,0,4.399,0.706,6.078,2.041c2.434,1.938,3.577,5.358,3.925,6.585l2.637-1.052
					c-0.238-0.93-1.291-3.725-5.688-6.814c-2.104-1.479-4.522-2.229-7.193-2.229c-1.466,0-2.604,0.232-3.167,0.375l0.476,1.471
					C980.433,504.744,981.494,504.516,982.814,504.516z"/>
			</g>
		</g>
		<path fill="#463117" d="M1006.697,610.473L1006.697,610.473c-1.146,0-2.315-0.415-3.126-1.116
			c-0.62-0.534-2.718-2.462-3.644-4.822c-0.345-0.883-0.268-1.588,0.232-2.097c0.346-0.349,1.062-0.766,2.518-0.766l1.034-0.002
			c1.233,0,3.31,0,5.085,0h1.702c1.106,0,1.899,0.238,2.354,0.705c0.587,0.602,0.399,1.368,0.234,1.771
			c-0.284,0.704-1.465,3.003-3.463,5.139C1008.912,610.051,1007.871,610.473,1006.697,610.473z"/>
		<path fill="#463117" d="M1007.896,550.384l-4.136-0.266c0,0,1.058,1.862,1.742,4.273c0.772,2.728-0.707,6.711-0.707,6.711
			S1010.311,554.859,1007.896,550.384z"/>
		<g>
			<path fill="#463117" d="M1002.734,621.395c-14.723-1.131-19.9-15.041-19.9-17.938l3.845,0.002l-1.923-0.002h1.923
				c0.019,1.252,3.932,13.151,16.352,14.106L1002.734,621.395z"/>
		</g>
		<path fill="#FFFFFF" d="M998.598,596.473c-0.229-1.331-0.254-2.591,0.026-3.83c-1.119-0.842-3.126-1.153-4.633-1.643
			c-1.231-0.779-7.534,0.799-12.107-4.734c-5.729-6.93-4.522-11.066-4.522-11.066c-1.469,1.632-2.894,1.011-5.133,8.621
			c-2.242,7.61,1.054,12.918,7.193,18.244c2.901,2.518,7.003,3.554,10.53,3.951c-1.183-1.188,2.019-1.307,4.225-2.132
			c-0.177-1.78,0.117-3.51,1.446-4.901c0.801-0.84,1.831-1.341,2.898-1.739c0.061-0.14,0.11-0.268,0.168-0.398
			C998.654,596.723,998.619,596.6,998.598,596.473z"/>
		<path fill="#C9C9C9" d="M994.146,603.838c-0.127-0.373-0.226-0.755-0.318-1.139c-0.102-0.419-0.61-1.605,0.017-0.251
			c-0.159-0.347-0.267-0.704-0.344-1.064c-9.945-0.013-18.597-6.841-16.926-21.194c-1.302-1.729-3.126,3.484-3.126,3.484
			s-4.979,14.457,7.881,20.06c4.284,1.868,8.07,3.209,8.964,2.668c1.861,0.379,3.541-0.92,4.171-1.772
			C994.347,604.366,994.239,604.104,994.146,603.838z"/>
		<path fill="#463117" d="M998.418,594.39c0.018-1.211,0.263-2.385,0.85-3.555c0.041-0.08,0.088-0.157,0.133-0.235
			c-3.827-0.032-8.234-0.398-11.987-1.901c-4.126-1.648-9.286-7.295-10.174-13.928c0,0-7.769,5.994-5.485,18.826
			c2.145,12.051,12.227,15.979,23.727,16.643c0.006-0.078-1.295-2.762-0.884-4.404c-6.528,0.475-13.831-2.049-17.356-7.85
			c-3.227-5.309-2.321-14.371-0.994-15.699C979.479,592.493,991.119,594.568,998.418,594.39z"/>
		<path fill="#463117" d="M1019.077,610.212"/>
		<path fill="#463117" d="M999.623,587.082c-2.07,6.072-6.296,10.987-6.296,10.987s5.813-0.266,6.136-1.294
			c0.236-0.759,5.249-12.492,7.173-26.237C1004.826,573.512,999.801,586.562,999.623,587.082z"/>
		<path fill="#E78825" d="M1032.564,573.082c0,0,6.591,10.08,11.428,17.234c0.749,1.104-4.837,1.182-4.837,1.182L1032.564,573.082z"
			/>
		<path fill="#E78825" d="M1029.425,552.182c0,0,1.987,4.959,3.074,7.586c1.182,2.857,5.688,4.279,5.688,4.279
			s-2.336-2.449-2.336-8.654c0-2.604-3.36-3.639-3.36-3.639L1029.425,552.182z"/>
		<path fill="#E78825" d="M1031.432,554.985c0,0,4.071,4.847,11.635,2.133c7.562-2.715,8.337-12.409,8.337-15.123
			c0-2.715-14.349,2.714-16.287,3.878C1033.177,547.036,1029.494,551.688,1031.432,554.985z"/>
		<path fill="#E78825" d="M1059.99,503.195c0,0-6.979-1.357-11.635,2.326c-4.651,3.683-6.009,6.592-6.009,6.592l7.843,6.217
			c0,0,3.789-1.758,4.954-6.799C1056.306,506.491,1055.531,504.165,1059.99,503.195z"/>
		<path fill="#E78825" d="M1033.468,540.985c3.006-4.267,7.956-6.125,11.911-6.436c6.742-0.525,9.941,1.856,9.941,1.856
			s-11.041,0.468-14.226,4.646c-5.925,7.779-14.563,8.412-15.946,6.703c1.599,0.079,3.356-0.713,5.237-2.492
			C1031.561,544.153,1032.515,542.34,1033.468,540.985z"/>
		<path fill="#E78825" d="M1052.107,556.068c0,0,12.249-4.212,9.922-8.478c-2.326-4.266-0.477-6.59-0.477-6.59
			s6.843,5.104,5.099,10.534c-1.071,3.331-2.869,5.743-12.737,10.368c-4.733,8.793-0.977,24.617-1.201,24.691
			c-0.376,0.125-6.646-3.1-6.217-17.905C1046.626,564.146,1046.989,557.938,1052.107,556.068z"/>
		<path fill="#E78825" d="M1036.055,510.781c5.136,2.608,12.174,6.244,12.174,6.244l-2.77,1.386
			c0.264,0.428,0.392,0.683,0.392,0.683l-2.843,1.293c0,0-6.939,5.027-11.191,8.261c1.416-4.365,5.577-11.225,5.577-11.225
			S1038.575,514.271,1036.055,510.781z"/>
		<path fill="#E78825" d="M1018.991,617.156c15.785,0,21.133-8.017,21.133-8.017l-2.466,6.01
			c-0.934,2.599-10.883,10.688-18.646,10.688"/>
		<path fill="#E78825" d="M1038.396,603.725c0,0-1.454,8.879-7.27,8.879c-4.942,0-6.398-7.5-6.398-9.05L1038.396,603.725z"/>
		<path fill="#E78825" d="M1048.075,590.336c-0.519-1.422-2.326-7.174-2.909-12.408c-0.697-6.27-0.441-15.438-0.441-15.438
			s1.553,6.01,2.907,6.98c1.358,0.969,3.878,7.561,3.878,7.561s1.352,9.812,1.993,13.11
			C1051.724,590.498,1050.229,589.451,1048.075,590.336z"/>
		<path fill="#E78825" d="M1062.122,551.439c0,0-3.297-1.164-4.265-8.336c-0.971-7.175,1.162-13.38,1.162-13.38
			s-0.194,9.889,0.97,11.828c1.163,1.938,2.133,2.521,3.489,5.04C1064.836,549.113,1062.896,550.664,1062.122,551.439z"/>
		<path fill="#88CCED" d="M1044.635,518.494"/>
		<path fill="#FDC169" d="M1058.188,504.893l0.674-0.427C1060.844,504.533,1058.188,504.893,1058.188,504.893z"/>
		<path fill="#FBAA1B" d="M1033.37,508.658c0,0,3.104-0.519,4.653-2.844c1.551-2.326,5.946-6.98,12.951-7.032
			c7.004-0.052,13.935,1.86,13.935,1.86l-6.049,3.822c-0.642-0.021-1.76-0.012-3.61,0.05c-7.591,0.252-8.759,7.763-8.759,7.763
			l-26.755-3.686"/>
		<path fill="#FFFFFF" d="M1030.787,550.132c0,0,3.618,3.619,9.176,2.456c5.561-1.163,8.92-3.62,9.179-7.886
			c0.259-4.265-1.163-5.945-1.163-5.945s-6.204,1.94-9.178,4.525C1035.827,545.868,1033.631,550.003,1030.787,550.132z"/>
		<path fill="#C9C9C9" d="M1035.166,548.839c0,0,3.139,1.435,6.646,0.268c4.595-1.532,4.899-6.31,4.899-6.31
			s2.815,8.269-5.083,9.859c-6.335,1.275-10.083-2.396-10.083-2.396L1035.166,548.839z"/>
		<path fill="#463117" d="M1031.559,595.182"/>
		<path fill="#463117" d="M1055.686,517.705c2.561-2.125,0.653-4.096,0.855-6.51c0.108-1.283,0.21-2.496,0.634-3.164
			c2.355-3.722,7.914-4.851,7.973-4.86l2.608-0.512l-1.728-2.021c-0.226-0.261-7.315-7.026-18.292-3.483
			c-7.676,2.476-13.359,10.871-13.57,11.211l3.85,1.811c0.046-0.071,4.538-7.964,11.125-10.088
			c5.322-1.718,10.229-0.084,12.33,0.988c-2.231,0.892-5.154,2.516-6.915,5.295c-0.831,1.312-0.969,2.965-1.104,4.564
			c-0.178,2.118-0.347,4.118-1.906,5.413L1055.686,517.705z"/>
		<path fill="#463117" d="M1062.521,548.713c0,0-3.224-4-4.18-11.783c-0.375-3.065,0.289-9.112,1.356-11.438
			c-0.194,5.719,1.262,11.438,1.262,11.438S1061.939,547.55,1062.521,548.713z"/>
		<path fill="#463117" d="M1045.515,513.665c0.002-0.009,1.034-4.524,3.9-6.805c4.04-3.216,8.978-1.505,9.022-1.489l0.718-2.214
			c-0.239-0.077-5.879-1.854-11.078,1.8c-5.23,3.674-5.855,7.005-5.912,7.373L1045.515,513.665z"/>
		<path fill="#463117" d="M1052.392,545.845c0,0,1.693-2.423,1.389-5.087c-0.15-1.315-0.761-2.667-1.851-3.146
			c-2.021-0.89-2.92,1.403-2.92,1.403S1051.858,539.719,1052.392,545.845z"/>
		<path fill="#463117" d="M1031.559,595.182"/>
		<path fill="#463117" d="M1033.811,549.537c-0.069,0.132-0.106,0.205-0.106,0.205s5.276,3.962,10.687-0.058
			c2.897-2.153,2.624-7.481,1.735-9.741c-2.306,0.522-4.262,1.466-5.897,2.564c2.066-1.844,3.877-3.202,3.869-3.232l2.353-0.665
			l4.564-1.564c0.06,0.349,1.725,8.154-3.086,13.474c-2.13,2.358-12.119,7.642-16.859-1.391L1033.811,549.537z"/>
		<path fill="#463117" d="M1034.303,550.118c-2.971,4.521-10.467,1.938-10.338-2.844c0,0,5.009,2.765,9.437-2.326
			c2.585-2.974,10.866-11.169,22.098-8.444C1047.742,538.209,1037.475,545.295,1034.303,550.118z"/>
		<g>
			<path fill="#463117" d="M1031.559,595.182"/>
		</g>
		<path fill="#463117" d="M1056.548,562.884c-0.717,0.413-3.238,3.024-3.238,6.931c-0.002,1.957,0.193,11.797,1.164,17.808
			c-1.459,0.946-2.475,1.147-3.926,2.114c-0.728-6.962-1.249-17.051-1.006-21.123c0.278-4.644,2.763-7.76,5.067-9.087
			c0.724-0.416,1.478-0.824,2.237-1.234c3.948-2.134,8.031-4.341,8.031-8.109c0-2.946-1.146-3.868-2.36-4.848l-0.13-0.104
			c-0.804-0.65-1.717-1.39-2.255-2.601c-1.475-3.312-1.716-11.749-0.002-13.891c0.854-1.066,3.146-4.655,2.487-7.066
			c-0.253-0.921-0.833-1.604-1.776-2.087c-0.998-0.511-2.346-0.771-4.008-0.771c-3.26,0-6.88,0.993-8.745,1.584
			c-6.67,2.113-14.718,8.209-17.026,10.026c-0.065,0.051-0.104,0.08-0.11,0.085l-1.478,1.026l0.924-1.544
			c0.059-0.097,5.903-9.711,16.358-13.236c2.034-0.687,6.029-1.837,9.957-1.837c2.339,0,4.319,0.408,5.895,1.213
			c1.915,0.979,3.21,2.542,3.75,4.519c1.318,4.842-2.98,10.233-3.127,10.405c-0.502,0.896-0.714,7.396,0.442,9.998
			c0.159,0.359,0.596,0.712,1.149,1.158c0.173,0.142,0.365,0.285,0.572,0.441c1.634,1.232,4.104,3.097,4.104,7.392
			c0,5.877-5.956,9.063-10.741,11.626C1057.974,562.094,1057.223,562.493,1056.548,562.884z"/>
		<path fill="#463117" d="M1049.441,517.014c-0.947-1.604-3.369-4.703-8.954-7.426c-6.23-3.037-13.442-4.578-21.438-4.582v-0.002
			c0,0-0.011,0-0.017,0c0,0-0.011,0-0.015,0l0,0c-7.998,0.004-15.212,1.546-21.439,4.583c-5.585,2.724-8.006,5.821-8.955,7.426
			l-0.406,0.538l4.781,1.064l0.15-0.191l0.08-0.176c0.074-0.316,0.716-2.021,6.048-4.622c5.698-2.779,12.347-4.188,19.756-4.191
			c7.41,0.004,14.055,1.412,19.754,4.191c5.331,2.601,5.975,4.306,6.048,4.622l0.079,0.176l0.149,0.191l4.782-1.064
			L1049.441,517.014z"/>
		<g>
			<g>
				<path fill="#463117" d="M1055.686,517.705c2.561-2.125,0.653-4.096,0.855-6.51c0.108-1.283,0.21-2.496,0.634-3.164
					c2.355-3.722,7.914-4.851,7.973-4.86l2.608-0.512l-1.728-2.021c-0.226-0.261-7.315-7.026-18.292-3.483
					c-7.676,2.476-13.359,10.871-13.57,11.211l3.85,1.811c0.046-0.071,4.538-7.964,11.125-10.088
					c5.322-1.718,10.229-0.084,12.33,0.988c-2.231,0.892-5.154,2.516-6.915,5.295c-0.831,1.312-0.969,2.965-1.104,4.564
					c-0.178,2.118-0.347,4.118-1.906,5.413L1055.686,517.705z"/>
			</g>
			<g>
				<path fill="#463117" d="M1050.757,516.498l0.539-0.448c1.435-1.188,1.594-3.109,1.768-5.151
					c0.141-1.645,0.282-3.345,1.163-4.733c1.617-2.553,4.178-4.152,6.288-5.104c-1.263-0.534-3.636-1.332-6.562-1.332
					c-1.616,0-3.194,0.244-4.694,0.729c-6.109,1.97-10.427,9.09-10.915,9.925l-0.184,0.29l-4.555-2.142l0.232-0.369
					c0.054-0.087,5.768-8.792,13.78-11.375c2.144-0.692,4.297-1.042,6.4-1.042c7.712,0,12.266,4.598,12.304,4.645l2.16,2.524
					l-3.26,0.64c-0.054,0.012-5.475,1.146-7.72,4.688c-0.372,0.59-0.47,1.754-0.575,2.99c-0.062,0.734,0.094,1.451,0.242,2.145
					c0.326,1.502,0.662,3.056-1.237,4.629l-0.164,0.138L1050.757,516.498z"/>
			</g>
		</g>
		<g>
			<g>
				<path fill="#463117" d="M1045.515,513.665c0.002-0.009,1.034-4.524,3.9-6.805c4.04-3.216,8.978-1.505,9.022-1.489l0.718-2.214
					c-0.239-0.077-5.879-1.854-11.078,1.8c-5.23,3.674-5.855,7.005-5.912,7.373L1045.515,513.665z"/>
			</g>
			<g>
				<path fill="#463117" d="M1041.737,512.578l0.046-0.305c0.057-0.386,0.711-3.867,6.071-7.636
					c2.204-1.549,4.847-2.369,7.641-2.369c2.119,0,3.615,0.467,3.781,0.521l0.368,0.119l-0.961,2.953l-0.37-0.123
					c-0.141-0.047-1.387-0.448-3.062-0.448c-2.147,0-4.031,0.63-5.592,1.874c-2.74,2.181-3.756,6.541-3.765,6.585l-0.102,0.442
					L1041.737,512.578z M1058.188,504.893l0.477-1.471c-0.562-0.143-1.702-0.375-3.168-0.375c-2.671,0-5.092,0.749-7.194,2.229
					c-4.397,3.091-5.449,5.886-5.688,6.814l2.641,1.052c0.346-1.228,1.488-4.646,3.923-6.585c1.68-1.335,3.78-2.041,6.075-2.041
					C1056.571,504.516,1057.634,504.744,1058.188,504.893z"/>
			</g>
		</g>
		<path fill="#463117" d="M1028.439,609.285c-1.996-2.136-3.179-4.435-3.465-5.139c-0.162-0.403-0.349-1.171,0.237-1.771
			c0.456-0.467,1.247-0.705,2.354-0.705h1.701c1.775,0,3.852,0,5.086,0l1.034,0.002c1.453,0,2.171,0.416,2.516,0.766
			c0.501,0.507,0.579,1.214,0.233,2.097c-0.925,2.36-3.022,4.288-3.644,4.822c-0.812,0.701-1.979,1.116-3.124,1.116l0,0
			C1030.196,610.473,1029.156,610.051,1028.439,609.285z"/>
		<path fill="#463117" d="M1030.169,550.384l4.134-0.266c0,0-1.056,1.862-1.74,4.273c-0.773,2.728,0.707,6.711,0.707,6.711
			S1027.755,554.859,1030.169,550.384z"/>
		<path fill="#E78825" d="M1019.033,535.617c-2.637,0-6.072-0.072-8.65-1.926c0,0,3.376,5.92,8.646,5.92l0.004-0.75l0.006,0.75
			c5.271,0,8.646-5.92,8.646-5.92C1025.105,535.545,1021.668,535.617,1019.033,535.617z"/>
		<path fill="#463117" d="M1026.292,535.588c-2.644,1.602-5.006,2.155-7.259,2.204c-2.252-0.049-4.612-0.604-7.257-2.204
			c0,0,3.85,4.699,7.236,4.735v0.003c0.007,0,0.014-0.002,0.021-0.002s0.013,0.002,0.02,0.002v-0.003
			C1022.439,540.287,1026.292,535.588,1026.292,535.588z"/>
		<g>
			<path fill="#463117" d="M1035.332,621.395l-0.295-3.832c12.416-0.955,16.328-12.854,16.35-14.106h3.844
				C1055.232,606.352,1050.052,620.264,1035.332,621.395z"/>
		</g>
		<path fill="#FFFFFF" d="M1039.469,596.473c0.23-1.331,0.253-2.591-0.025-3.83c1.119-0.842,3.127-1.153,4.633-1.643
			c1.23-0.779,7.536,0.799,12.107-4.734c5.729-6.93,4.521-11.066,4.521-11.066c1.471,1.632,2.895,1.011,5.134,8.621
			c2.243,7.61-1.054,12.918-7.193,18.244c-2.901,2.518-7.003,3.554-10.53,3.951c1.181-1.188-2.02-1.307-4.225-2.132
			c0.178-1.78-0.118-3.51-1.446-4.901c-0.799-0.84-1.831-1.341-2.898-1.739c-0.061-0.14-0.112-0.268-0.167-0.398
			C1039.413,596.723,1039.446,596.6,1039.469,596.473z"/>
		<path fill="#C9C9C9" d="M1043.918,603.838c0.129-0.373,0.224-0.755,0.318-1.139c0.104-0.419,0.61-1.605-0.017-0.251
			c0.161-0.347,0.268-0.704,0.345-1.064c9.945-0.013,18.598-6.841,16.925-21.194c1.302-1.729,3.126,3.484,3.126,3.484
			s4.979,14.457-7.881,20.06c-4.283,1.868-8.069,3.209-8.964,2.668c-1.861,0.379-3.543-0.92-4.171-1.772
			C1043.718,604.366,1043.828,604.104,1043.918,603.838z"/>
		<path fill="#463117" d="M1039.646,594.39c-0.015-1.211-0.264-2.385-0.847-3.555c-0.042-0.08-0.09-0.157-0.134-0.235
			c3.827-0.032,8.235-0.398,11.987-1.901c4.126-1.648,9.286-7.295,10.173-13.928c0,0,7.77,5.994,5.487,18.826
			c-2.146,12.051-12.229,15.979-23.728,16.643c-0.006-0.078,1.294-2.762,0.883-4.404c6.528,0.475,13.83-2.049,17.356-7.85
			c3.226-5.309,2.319-14.371,0.994-15.699C1058.588,592.493,1046.946,594.568,1039.646,594.39z"/>
		<g>
			<path fill="#463117" d="M1018.991,610.212"/>
			<path fill="#463117" d="M1044.29,597.413c-1.374-1.486-3.9-3.257-9.724-3.257c0,0-11.042-0.006-15.514-0.008l0,0
				c-0.007,0-0.014,0-0.02,0c0,0-0.016,0-0.02,0l0,0c-4.471,0.002-15.516,0.008-15.516,0.008c-5.823,0-8.35,1.771-9.724,3.257
				c-2.003,2.161-2.316,5.169-0.932,8.927c3.682,10.003,8.854,20.167,26.168,20.183v0.001c0.007,0,0.013-0.001,0.021-0.001
				c0.007,0,0.013,0.001,0.02,0.001v-0.001c17.313-0.017,22.486-10.18,26.168-20.183
				C1046.605,602.582,1046.291,599.574,1044.29,597.413z M1041.595,605.638c-1.754,5.023-6.467,17.184-22.562,17.204
				c-16.096-0.021-20.808-12.181-22.562-17.204c-0.97-2.787-0.896-4.85,0.229-6.131c0.768-0.876,2.531-1.921,6.549-1.921
				l4.197-0.002c3.097-0.002,6.983-0.006,11.589-0.008c4.604,0.002,8.493,0.006,11.589,0.008l4.196,0.002
				c4.019,0,5.78,1.045,6.55,1.921C1042.49,600.789,1042.564,602.851,1041.595,605.638z"/>
		</g>
		<path fill="#463117" d="M1038.442,587.082c2.069,6.072,6.296,10.987,6.296,10.987s-5.813-0.266-6.137-1.294
			c-0.235-0.759-5.248-12.492-7.173-26.237C1033.238,573.512,1038.265,586.562,1038.442,587.082z"/>
	</g>
</g>
<g opacity="0.1">
	<path fill="#52B2E3" d="M788.861,203.217c4.231,7.073,9.263,12.334,14.5,17.805c3.479,3.637,7.074,7.397,10.623,11.91l0.021,0.027
		l0.021,0.028c4.979,6.164,7.504,13.939,7.105,21.895c-0.396,8.011-3.746,15.549-9.423,21.224
		c-6.104,6.103-14.217,9.464-22.847,9.464c-8.632,0-16.746-3.363-22.851-9.464c-5.677-5.677-9.022-13.214-9.423-21.223
		c-0.397-7.956,2.125-15.73,7.104-21.895l0.021-0.028l0.021-0.028c3.548-4.512,7.145-8.273,10.625-11.91
		C779.598,215.548,784.631,210.29,788.861,203.217 M788.861,190.937c-6.731,17.752-18.035,24.329-29.325,38.691
		c-11.945,14.789-11.048,36.514,2.698,50.26c7.353,7.353,16.989,11.03,26.627,11.03c9.64,0,19.274-3.676,26.63-11.03
		c13.743-13.744,14.642-35.469,2.694-50.26C806.896,215.264,795.594,208.688,788.861,190.937L788.861,190.937z"/>
</g>
<radialGradient id="ellipse10_1_" cx="136.7637" cy="78.1191" r="84.9944" gradientTransform="matrix(1 0 0 1 474.52 263.6934)" gradientUnits="userSpaceOnUse">
	<stop  offset="0" style="stop-color:#FFFFFF"/>
	<stop  offset="0.5" style="stop-color:#4D6C98"/>
	<stop  offset="1" style="stop-color:#010101"/>
</radialGradient>
<ellipse id="ellipse10" opacity="0.1" fill="url(#ellipse10_1_)" enable-background="new    " cx="637.146" cy="363.89" rx="64.728" ry="34.048"/>
<ellipse id="ellipse12" opacity="0.1" fill="#6282B7" enable-background="new    " cx="637.146" cy="363.89" rx="62.198" ry="31.521"/>
<g id="g14" opacity="0.1">
	<path id="path16" fill="#FFFFFF" d="M649.747,374.078l3.086-15.879c0.695-3.583,0.117-6.257-1.722-7.946
		c-1.779-1.634-4.803-2.429-9.238-2.429h-5.343l1.528-7.867c0.06-0.297-0.02-0.604-0.212-0.836
		c-0.191-0.233-0.479-0.368-0.779-0.368h-7.375c-0.483,0-0.9,0.343-0.992,0.818l-3.276,16.855c-0.298-1.896-1.032-3.526-2.207-4.872
		c-2.163-2.476-5.585-3.73-10.17-3.73h-14.294c-0.482,0-0.899,0.343-0.992,0.817l-6.632,34.122
		c-0.058,0.296,0.021,0.604,0.212,0.835c0.192,0.233,0.479,0.368,0.78,0.368h7.434c0.483,0,0.9-0.343,0.992-0.816l1.604-8.254h5.532
		c2.903,0,5.343-0.314,7.247-0.936c1.947-0.634,3.739-1.707,5.318-3.186c1.276-1.174,2.331-2.485,3.144-3.902l-1.325,6.818
		c-0.058,0.297,0.021,0.604,0.213,0.836c0.191,0.232,0.479,0.367,0.78,0.367h7.374c0.483,0,0.899-0.344,0.992-0.817l3.641-18.729
		h5.06c2.156,0,2.788,0.431,2.959,0.614c0.156,0.168,0.48,0.762,0.117,2.632l-2.934,15.099c-0.059,0.297,0.021,0.603,0.213,0.836
		c0.19,0.231,0.478,0.368,0.778,0.368h7.492C649.238,374.896,649.654,374.553,649.747,374.078z M615.559,360.959
		c-0.463,2.38-1.336,4.077-2.595,5.047c-1.278,0.984-3.324,1.483-6.079,1.483h-3.294l2.383-12.258h4.26
		c3.129,0,4.39,0.669,4.896,1.229C615.829,357.239,615.979,358.794,615.559,360.959z"/>
	<path id="path18" fill="#FFFFFF" d="M681.282,351.556c-2.162-2.477-5.584-3.73-10.169-3.73h-14.294c-0.484,0-0.9,0.343-0.992,0.817
		l-6.632,34.121c-0.059,0.297,0.021,0.604,0.212,0.836c0.191,0.233,0.479,0.368,0.78,0.368h7.434c0.482,0,0.899-0.343,0.992-0.817
		l1.604-8.253h5.533c2.903,0,5.342-0.315,7.247-0.937c1.946-0.633,3.739-1.706,5.319-3.186c1.315-1.21,2.4-2.569,3.223-4.039
		c0.82-1.47,1.41-3.107,1.753-4.87C684.138,357.519,683.461,354.05,681.282,351.556z M673.574,360.959
		c-0.464,2.38-1.336,4.077-2.596,5.047c-1.277,0.984-3.322,1.483-6.078,1.483h-3.294l2.383-12.258h4.259
		c3.128,0,4.39,0.669,4.896,1.229C673.845,357.239,673.994,358.794,673.574,360.959z"/>
</g>
<g id="g20" opacity="0.1">
	<path id="path22" fill="#010101" d="M610.232,354.22c2.822,0,4.705,0.521,5.646,1.563c0.94,1.043,1.164,2.833,0.672,5.368
		c-0.514,2.642-1.503,4.525-2.97,5.654c-1.467,1.13-3.699,1.694-6.696,1.694h-4.521l2.774-14.281L610.232,354.22L610.232,354.22z
		 M592.122,382.957h7.433l1.764-9.072h6.366c2.81,0,5.12-0.294,6.936-0.885c1.813-0.59,3.463-1.579,4.947-2.969
		c1.245-1.146,2.253-2.407,3.023-3.789c0.771-1.38,1.319-2.903,1.644-4.569c0.787-4.045,0.192-7.195-1.778-9.452
		s-5.108-3.386-9.408-3.386h-14.294L592.122,382.957z"/>
	<path id="path24" fill="#010101" d="M629.692,339.764h7.375l-1.765,9.071h6.57c4.134,0,6.984,0.722,8.554,2.163
		c1.569,1.442,2.04,3.778,1.412,7.009l-3.086,15.878h-7.491l2.935-15.097c0.334-1.718,0.211-2.89-0.368-3.514
		c-0.58-0.625-1.813-0.938-3.7-0.938h-5.894l-3.799,19.548h-7.375L629.692,339.764z"/>
	<path id="path26" fill="#010101" d="M668.248,354.22c2.823,0,4.705,0.521,5.646,1.563c0.94,1.043,1.164,2.833,0.673,5.368
		c-0.515,2.642-1.504,4.525-2.971,5.654c-1.467,1.13-3.698,1.694-6.695,1.694h-4.521l2.774-14.281L668.248,354.22L668.248,354.22z
		 M650.138,382.957h7.434l1.763-9.072h6.367c2.809,0,5.119-0.294,6.934-0.885c1.814-0.59,3.463-1.579,4.948-2.969
		c1.245-1.146,2.253-2.407,3.024-3.789c0.771-1.38,1.318-2.903,1.643-4.569c0.787-4.045,0.193-7.195-1.778-9.452
		c-1.971-2.257-5.107-3.386-9.409-3.386H656.77L650.138,382.957z"/>
</g>
<g id="carré" opacity="0.1">
	<rect x="-6" y="171.451" fill="#FFFFFF" width="202" height="223.667"/>
	<g>
		<g>
			<path fill="#010101" d="M149.951,255.899c0,30.976-25.109,56.087-56.084,56.087c-30.973,0-56.081-25.111-56.081-56.087
				c0-30.971,25.107-56.079,56.081-56.079C124.842,199.82,149.951,224.928,149.951,255.899z"/>
			<path fill="#FFFFFF" d="M118.389,220.57c-5.697,0.195-10.67,3.34-14.373,7.68c-4.1,4.765-6.824,10.411-8.791,16.18
				c-3.514-2.882-6.223-6.611-11.864-8.233c-4.359-1.253-8.936-0.737-13.146,2.399c-1.992,1.489-3.367,3.738-4.02,5.859
				c-1.692,5.498,1.778,10.396,3.354,12.151l3.447,3.691c0.709,0.725,2.422,2.613,1.584,5.319c-0.9,2.947-4.451,4.85-8.092,3.731
				c-1.627-0.499-3.963-1.71-3.439-3.413c0.215-0.699,0.715-1.225,0.984-1.821c0.244-0.521,0.363-0.907,0.438-1.14
				c0.665-2.169-0.245-4.994-2.57-5.713c-2.171-0.666-4.391-0.138-5.252,2.655c-0.977,3.174,0.543,8.935,8.681,11.441
				c9.535,2.935,17.597-2.259,18.742-9.026c0.721-4.239-1.195-7.392-4.701-11.441l-2.859-3.163c-1.73-1.729-2.324-4.677-0.533-6.942
				c1.512-1.912,3.664-2.726,7.191-1.768c5.15,1.396,7.443,4.969,11.271,7.851c-1.578,5.187-2.613,10.392-3.547,15.059l-0.574,3.481
				c-2.736,14.352-4.826,22.234-10.256,26.76c-1.094,0.779-2.658,1.943-5.014,2.027c-1.238,0.037-1.637-0.814-1.654-1.186
				c-0.027-0.865,0.703-1.265,1.188-1.652c0.727-0.396,1.824-1.053,1.748-3.156c-0.078-2.484-2.137-4.639-5.111-4.541
				c-2.229,0.075-5.625,2.171-5.497,6.011c0.131,3.968,3.827,6.938,9.401,6.75c2.979-0.102,9.633-1.312,16.188-9.104
				c7.63-8.935,9.766-19.175,11.373-26.671l1.793-9.897c0.992,0.119,2.059,0.2,3.217,0.228c9.504,0.201,14.256-4.72,14.328-8.302
				c0.049-2.167-1.42-4.302-3.479-4.251c-1.471,0.041-3.319,1.022-3.762,3.057c-0.437,1.995,3.022,3.798,0.319,5.553
				c-1.92,1.242-5.36,2.116-10.209,1.407l0.881-4.872c1.8-9.238,4.019-20.6,12.437-20.878c0.615-0.029,2.856,0.026,2.91,1.512
				c0.014,0.493-0.109,0.623-0.688,1.757c-0.593,0.884-0.814,1.64-0.785,2.504c0.08,2.356,1.873,3.908,4.471,3.818
				c3.473-0.116,4.469-3.496,4.412-5.233C128.383,222.962,124.08,220.382,118.389,220.57z"/>
		</g>
		<g>
			<g>
				<path fill="#010101" d="M114.689,335.336c5.664,0,9.465,4.095,9.465,9.757c0,5.338-3.873,9.758-9.465,9.758
					c-5.627,0-9.502-4.42-9.502-9.758C105.188,339.431,108.988,335.336,114.689,335.336z M114.689,352.074
					c4.018,0,5.809-3.654,5.809-6.981c0-3.543-2.154-6.979-5.809-6.979c-3.689,0-5.847,3.437-5.847,6.979
					C108.844,348.42,110.633,352.074,114.689,352.074z"/>
			</g>
			<path fill="#010101" d="M104.717,337.07v-1.297h-4.934v-1.771c0-2.521,0.365-4.424,3.324-4.424c0.057,0,0.113,0.004,0.17,0.006
				c0.006,0,0.006-0.008,0.014-0.008c0.818,0.062,1.502-0.608,1.549-1.432l0.061-1.125c-0.694-0.109-1.428-0.221-2.303-0.221
				c-5.078,0-6.248,2.961-6.248,7.494v1.479h-4.387v1.445c0.111,0.75,0.754,1.328,1.537,1.328c0.004,0,0.008,0.004,0.012,0.004
				h2.837v15.859h1.894c0.004,0,0.002-0.002,0.006-0.002c0.785,0,1.431-0.588,1.535-1.347v-14.512h3.437
				C104.031,338.525,104.68,337.879,104.717,337.07z"/>
			<path fill="#010101" d="M58.961,335.773c-0.007,0-0.01,0.004-0.018,0.004c-0.725,0-1.426,0.498-1.731,1.17l-4.728,14.25h-0.073
				l-4.623-14.242c-0.302-0.676-1.007-1.178-1.735-1.178c-0.007,0-0.01-0.004-0.018-0.004H43.64l6.322,17.396
				c0.221,0.621,0.659,1.572,0.659,1.973c0,0.365-1.024,4.605-4.095,4.605c-0.076,0-0.152-0.008-0.228-0.014
				c-0.783-0.043-1.375,0.504-1.507,1.346l-0.093,1.188c0.621,0.108,1.244,0.257,2.341,0.257c4.53,0,5.883-4.132,7.162-7.711
				l6.871-19.041L58.961,335.773L58.961,335.773z"/>
			<path fill="#010101" d="M37.123,339.56c-2.838-1.449-5.941-2.438-5.996-5.355c0.009-3.104,2.859-3.918,5.056-3.914
				c0.009-0.002,0.019-0.002,0.023-0.002c0.954,0,1.717,0.095,2.461,0.258c0.011,0,0.009-0.012,0.021-0.012
				c0.787,0.058,1.447-0.561,1.541-1.334l0.062-1.127c-1.439-0.356-2.945-0.539-4.254-0.539c-4.777,0.027-8.322,2.435-8.334,7.019
				c0.006,4.01,2.709,5.562,5.614,6.972c2.851,1.368,5.972,2.502,5.999,5.809c-0.018,3.453-3.348,4.727-5.644,4.729
				c-1.343-0.004-2.801-0.34-4.028-0.728c-0.77-0.127-1.401,0.554-1.5,1.451l-0.104,1.004c1.688,0.547,3.419,1.021,5.159,1.021
				c0,0,0.002,0,0.005,0c0.005,0,0.009,0,0.017,0c5.35-0.039,9.507-2.172,9.523-7.711C42.736,342.824,40.016,341.031,37.123,339.56z
				"/>
			<path fill="#010101" d="M89.08,354.412c0.002,0,0.002-0.002,0.004-0.002c0.742,0,1.359-0.52,1.518-1.215v-10.731
				c0-4.058-1.717-7.128-6.471-7.128c-1.68,0-4.492,0.951-5.771,3.619c-0.988-2.522-3.143-3.619-5.299-3.619
				c-2.742,0-4.605,0.986-5.919,3.145h-0.074v-1.158c-0.012-0.854-0.701-1.543-1.557-1.543c-0.006,0-0.01-0.004-0.016-0.004h-1.644
				v18.639h1.86c0.002,0,0.002-0.002,0.004-0.002c0.861,0,1.559-0.697,1.559-1.557c0-0.023,0.008-0.033,0.013-0.05v-7.782
				c0-3.474,1.387-6.908,4.895-6.908c2.777,0,3.328,2.887,3.328,5.188v11.108h1.885c0.002,0,0.002-0.002,0.006-0.002
				c0.812,0,1.471-0.623,1.543-1.416v-7.975c0-3.473,1.389-6.906,4.896-6.906c2.777,0,3.326,2.887,3.326,5.188v11.109L89.08,354.412
				L89.08,354.412z"/>
			<path fill="#010101" d="M142.164,354.412c0.004,0,0.004-0.002,0.006-0.002c0.836,0,1.512-0.66,1.551-1.485v-9.584
				c0-5.007-2.158-8.005-6.981-8.005c-2.595,0-5.076,1.279-6.103,3.4h-0.072v-1.395c0-0.002-0.004-0.002-0.004-0.006
				c0-0.861-0.697-1.561-1.557-1.561c-0.008,0-0.012-0.005-0.018-0.005h-1.75v18.64h1.889c0,0,0-0.002,0.004-0.002
				c0.816,0,1.48-0.633,1.545-1.435v-7.188c0-4.529,1.756-7.674,5.664-7.674c2.998,0.184,3.945,2.303,3.945,6.649v9.647h1.881
				V354.412z"/>
			<path fill="#010101" d="M160.656,335.773c-0.006,0-0.008,0.004-0.018,0.004c-0.724,0-1.427,0.498-1.73,1.17l-4.725,14.25h-0.076
				l-4.623-14.242c-0.303-0.676-1.008-1.178-1.736-1.178c-0.006,0-0.01-0.004-0.016-0.004h-2.396l6.322,17.396
				c0.219,0.621,0.659,1.572,0.659,1.973c0,0.365-1.024,4.605-4.096,4.605c-0.076,0-0.152-0.008-0.229-0.014
				c-0.781-0.043-1.373,0.504-1.506,1.346l-0.092,1.188c0.621,0.108,1.244,0.257,2.338,0.257c4.533,0,5.885-4.132,7.164-7.711
				l6.871-19.041L160.656,335.773L160.656,335.773z"/>
		</g>
	</g>
</g>
<g opacity="0.1">
	<path fill="#131B28" d="M571.62,518.396v-0.003l-1.324,4.693L571.62,518.396L571.62,518.396z"/>
	<path fill="#131B28" d="M578.431,528.586l-1.459-0.009L578.431,528.586z"/>
	<path fill="#131B28" d="M578.056,535.596L578.056,535.596l-8.742,0.032L578.056,535.596L578.056,535.596z"/>
	<path fill="#131B28" d="M579.889,528.596l-1.46-0.01L579.889,528.596z"/>
	<path fill="#131B28" d="M578.823,535l1.521-5.809l-1.521,5.811V535L578.823,535z"/>
	<path fill="#131B28" d="M611.015,508.25l-2.837,13.338L611.015,508.25z"/>
	<path fill="#131B28" d="M603.722,508.25l-2.153,9.964L603.722,508.25L603.722,508.25z"/>
	<path fill="#131B28" d="M610.53,507.649h-6.067c-0.337,0-0.671,0.27-0.743,0.599l-2.152,9.966l-2.154,9.966
		c-0.071,0.328-0.405,0.599-0.742,0.599h-3.681h-0.613c-4.249,0-3.758-2.938-2.887-6.966c0.008-0.041,0.017-0.079,0.024-0.12
		l0.097-0.509c0.006-0.032,0.013-0.064,0.018-0.096l0.194-1.033l0.208-1.106c0.062-0.333,0.158-0.821,0.222-1.128l0.979-4.784
		l0.979-4.785c0.067-0.329-0.153-0.601-0.49-0.601h-6.228c-0.337,0-0.67,0.271-0.738,0.601l-1.34,6.353l-1.339,6.354
		c-0.001,0.002-0.001,0.006-0.002,0.009l-0.124,0.591c-1.543,7.041-1.134,13.756,7.249,13.968c0.137,0.004,0.243,0.005,0.243,0.005
		H604.6c0.337,0,0.67-0.271,0.741-0.602l2.837-13.338l2.837-13.338C611.084,507.92,610.867,507.649,610.53,507.649L610.53,507.649z"
		/>
	<path fill="#131B28" d="M634.734,528.847c0.336,0,0.557,0.271,0.489,0.602l-0.59,2.879"/>
	<path fill="#131B28" d="M634.047,535.207l0.588-2.881l-0.59,2.882C634.045,535.207,634.047,535.207,634.047,535.207
		L634.047,535.207z"/>
	<path fill="#131B28" d="M633.307,535.812c0.002,0,0.002,0,0.004,0c-1.784,0.015-7.151,0.056-11.184,0.056
		C627.033,535.868,633.307,535.812,633.307,535.812L633.307,535.812z"/>
	<path fill="#131B28" d="M618.506,525.138c-0.005-0.314,0.354-0.857,0.691-0.857l-0.758-0.014
		C618.098,527.701,618.506,525.138,618.506,525.138L618.506,525.138z"/>
	<path fill="#131B28" d="M622.68,535.866c-0.039,0-0.078,0-0.117,0.001C622.602,535.866,622.641,535.866,622.68,535.866z"/>
	<path fill="#131B28" d="M634.734,528.847c0.336,0,0.557,0.271,0.489,0.602l-0.59,2.879l-0.096,0.47"/>
	<path fill="#131B28" d="M625.551,535.859h-0.022H625.551z"/>
	<path fill="#131B28" d="M624.062,535.864h-0.087H624.062z"/>
	<path fill="#131B28" d="M623.607,535.865c-0.05,0-0.097,0-0.144,0.001C623.512,535.865,623.559,535.865,623.607,535.865z"/>
	<path fill="#131B28" d="M623.145,535.866h-0.125H623.145z"/>
	<path fill="#131B28" d="M623.975,535.864c-0.123,0-0.246,0.001-0.366,0.001C623.729,535.865,623.852,535.864,623.975,535.864z"/>
	<path fill="#131B28" d="M625.527,535.859c-0.49,0.002-0.98,0.004-1.463,0.005C624.547,535.864,625.037,535.861,625.527,535.859z"/>
	<path fill="#131B28" d="M633.311,535.812h0.002c-1.309,0.011-4.541,0.033-7.764,0.047
		C628.77,535.848,632.002,535.823,633.311,535.812z"/>
	<path fill="#131B28" d="M634.047,535.209l0.492-2.413l-0.494,2.414C634.045,535.209,634.047,535.209,634.047,535.209
		L634.047,535.209z"/>
	<path fill="#131B28" d="M623.465,535.866h-0.32H623.465z"/>
	<path fill="#131B28" d="M622.561,535.867h-0.434H622.561z"/>
	<path fill="#131B28" d="M623.02,535.866h-0.342H623.02z"/>
	<path fill="#131B28" d="M534.266,525.21l0.942-4.178l-1.077,4.774l-1.034,4.865l0.906-4.265
		C534.073,526.078,534.192,525.539,534.266,525.21L534.266,525.21z"/>
	<path fill="#131B28" d="M545.546,507.579h-6.663c-0.337,0-0.673,0.27-0.748,0.598l-0.632,2.788l-0.632,2.79
		c-0.074,0.327,0.14,0.597,0.477,0.597h6.717c0.336,0,0.671-0.27,0.742-0.599l0.61-2.788l0.611-2.787v-0.001
		C546.1,507.849,545.883,507.579,545.546,507.579L545.546,507.579z"/>
	<path fill="#131B28" d="M544.096,516.855L544.096,516.855l-1.954,9.039L544.096,516.855z"/>
	<path fill="#131B28" d="M524.74,546.812c0,0,3.358,0.044,5.494,0.044c-1.622,0-4.302-0.03-5.496-0.044
		C524.739,546.812,524.74,546.812,524.74,546.812L524.74,546.812z"/>
	<path fill="#131B28" d="M536.151,516.854l-0.943,4.179L536.151,516.854z"/>
	<path fill="#131B28" d="M543.615,516.257h-6.716c-0.337,0-0.675,0.271-0.748,0.599l-0.943,4.178l-0.942,4.179
		c-0.073,0.328-0.191,0.868-0.263,1.197l-0.906,4.265l-0.905,4.266c-0.07,0.328-0.216,0.859-0.322,1.18c0,0-1.255,3.732-3.364,3.689
		c-0.09-0.002-0.177-0.003-0.263-0.005c-1.022-0.02-1.825-0.033-1.825-0.033h-0.002c-0.336-0.006-0.674,0.258-0.753,0.585
		l-0.696,2.928l-0.695,2.927c-0.077,0.327,0.134,0.597,0.469,0.604c1.195,0.015,3.875,0.045,5.497,0.045
		c5.268,0,8.045-2.919,9.824-11.318l2.084-9.641l1.954-9.042C544.168,516.526,543.951,516.257,543.615,516.257L543.615,516.257z"/>
	<path fill="#131B28" d="M639.012,535.525c-0.336,0-0.555-0.271-0.481-0.601l5.051-23.663"/>
	<path fill="#131B28" d="M646.033,534.925l2.043-10.1L646.033,534.925z"/>
	<path fill="#131B28" d="M638.602,535.226c-0.041-0.165-0.018-0.567,0.056-0.898l2.397-11.231l-2.526,11.831
		c-0.07,0.33,0.147,0.601,0.483,0.601h0.613C639.289,535.525,638.643,535.391,638.602,535.226L638.602,535.226z"/>
	<path fill="#131B28" d="M645.635,535.391c-0.184,0.074-0.608,0.136-0.947,0.136h0.613c0.338,0,0.668-0.271,0.734-0.602l0.121-0.601
		C646.09,534.654,645.818,535.316,645.635,535.391L645.635,535.391z"/>
	<path fill="#131B28" d="M647.057,529.875l0.902-4.458c0,0.003,0,0.007-0.002,0.009L647.057,529.875L647.057,529.875z"/>
	<path fill="#131B28" d="M666.99,512.848l0.276,1.15c0.078,0.329-0.135,0.596-0.471,0.597"/>
	<path fill="#131B28" d="M646.156,534.325l0.897-4.449L646.156,534.325z"/>
	<path fill="#131B28" d="M666.713,511.67l0.275,1.178L666.713,511.67z"/>
	<path fill="#131B28" d="M647.959,525.417c0.066-0.329,0.178-0.864,0.246-1.19l0.963-4.513l-1.09,5.111L647.959,525.417
		L647.959,525.417z"/>
	<path fill="#131B28" d="M643.664,510.875c-0.068,0.318-0.154,0.721-0.211,0.987l-2.398,11.231l2.527-11.832L643.664,510.875
		L643.664,510.875z"/>
	<path fill="#131B28" d="M667.268,513.998l-0.278-1.15l-0.275-1.178l-0.139-0.596c-0.545-2.12-2.146-3.344-5.623-3.344l-5.414-0.006
		l-4.984-0.006h-0.428h-5.182c-0.338,0-0.67,0.271-0.74,0.601l0,0l-0.248,1.172l-0.293,1.384l-0.082,0.388l-2.525,11.832
		l-2.396,11.231c-0.072,0.331-0.096,0.733-0.055,0.898c0.039,0.165,0.686,0.301,1.022,0.301h5.062c0.338,0,0.764-0.062,0.946-0.136
		c0.184-0.074,0.455-0.735,0.521-1.065l0.899-4.449l0.9-4.448c0-0.002,0-0.006,0.002-0.01l0.119-0.592l1.092-5.111l0.963-4.515
		c0.07-0.328,0.402-0.598,0.74-0.598l15.922-0.008C667.131,514.594,667.344,514.326,667.268,513.998L667.268,513.998z"/>
	<path fill="#131B28" d="M687.766,503.601c-0.338,0.003-0.889,0.006-1.227,0.006h-5.096c-0.338,0-0.771,0.228-0.959,0.506
		l-11.271,16.51c-0.19,0.279-0.408,0.238-0.481-0.09l-0.83-3.639c-0.074-0.328-0.412-0.598-0.748-0.598h-7.246
		c-0.336,0-0.535,0.265-0.443,0.589l3.246,11.372c0.092,0.324,0.1,0.857,0.016,1.185l-1.416,5.504
		c-0.082,0.327,0.125,0.595,0.461,0.595h7.162c0.336,0,0.681-0.269,0.765-0.595l1.416-5.504c0.082-0.326,0.315-0.814,0.52-1.084
		l18.297-24.282c0.203-0.271,0.095-0.488-0.244-0.486L687.766,503.601L687.766,503.601z"/>
	<path fill="#131B28" d="M630.205,517.844v-0.006c-0.041,0.365-0.379,0.634-0.717,0.634h-9.185c-0.317,0-0.479-0.216-0.433-0.481
		c0.003-0.008,0.004-0.016,0.009-0.021c0,0-0.003,0.001-0.006,0.003c0.002-0.011,0.002-0.021,0.005-0.03
		c0,0,0.019-0.064,0.042-0.156c0.877-2.332,2.665-3.863,6.022-3.863c3.78,0,4.52,1.848,4.264,3.924h-0.002V517.844z
		 M627.512,507.242c-11.791,0-14.585,7.156-16.151,14.379c-1.567,7.362-1.434,14.246,10.767,14.246h0.435
		c0.038-0.001,0.077-0.001,0.116-0.001h0.343h0.125h0.319c0.047-0.001,0.094-0.001,0.144-0.001c0.121,0,0.244-0.001,0.366-0.001
		h0.087c0.481,0,0.973-0.003,1.465-0.004h0.022c3.224-0.014,6.455-0.037,7.765-0.048c0.334-0.006,0.661-0.275,0.729-0.603
		l0.494-2.415l0.096-0.47l0.59-2.879c0.066-0.33-0.151-0.602-0.489-0.602h-10.97c-4.361,0-5.657-1.158-5.18-4.566h17.534
		l-0.002,0.002c0.004,0,0.008-0.002,0.012-0.002c0.279-0.005,0.537-0.196,0.64-0.452c0.02-0.049,0.034-0.102,0.043-0.153
		l-0.002,0.002C639.412,513.855,638.665,507.241,627.512,507.242L627.512,507.242L627.512,507.242z"/>
	<path fill="#131B28" d="M571.786,517.807l-0.166,0.588c0,0.003-0.001,0.003-0.001,0.003l-1.323,4.69l-1.323,4.691
		c-0.092,0.323-0.441,0.589-0.779,0.589h-7.008c-5.314,0-6.609-4.157-5.314-10.289c1.294-6.272,3.831-10.171,9.062-10.565
		C572.082,506.975,573.511,512.003,571.786,517.807L571.786,517.807z M576.591,528.008c0,0,3.304-8.021,4.054-12.656
		c1.023-6.201-2.081-15.196-14.076-15.196c-11.929,0-17.106,8.588-19.083,17.925c-1.977,9.403,0.612,17.65,12.473,17.583
		l9.354-0.034l8.744-0.032c0.337-0.003,0.682-0.27,0.768-0.595l1.522-5.811c0.085-0.326-0.12-0.595-0.458-0.597l-1.46-0.009
		l-1.459-0.009c-0.286-0.002-0.45-0.188-0.416-0.434C576.561,528.1,576.571,528.055,576.591,528.008L576.591,528.008z"/>
	<path fill="#131B28" d="M635.635,522.639c0,0.223-0.18,0.402-0.401,0.402c-0.223,0-0.402-0.181-0.402-0.402
		c0-0.221,0.18-0.4,0.402-0.4C635.455,522.238,635.635,522.417,635.635,522.639z"/>
	<path fill="#0A69AD" d="M485.517,512.208c-3.293,4.733-2.883,10.892-0.366,15.921c0.06,0.121,0.121,0.239,0.185,0.358
		c0.039,0.075,0.076,0.151,0.117,0.226c0.022,0.045,0.049,0.089,0.073,0.131c0.043,0.08,0.087,0.156,0.132,0.234
		c0.078,0.138,0.157,0.275,0.239,0.412c0.046,0.075,0.091,0.149,0.138,0.226c0.091,0.146,0.184,0.291,0.278,0.437
		c0.039,0.062,0.077,0.124,0.118,0.184c0.132,0.195,0.266,0.391,0.403,0.583c0.004,0.005,0.008,0.01,0.012,0.016
		c0.021,0.03,0.046,0.062,0.068,0.092c0.119,0.165,0.242,0.327,0.367,0.488c0.046,0.06,0.093,0.118,0.139,0.178
		c0.111,0.14,0.225,0.277,0.34,0.418c0.043,0.052,0.087,0.104,0.13,0.153c0.155,0.184,0.312,0.364,0.475,0.541
		c0.003,0.004,0.007,0.008,0.01,0.012c0.007,0.008,0.013,0.012,0.019,0.02c0.157,0.172,0.318,0.34,0.481,0.508
		c0.051,0.053,0.102,0.104,0.154,0.155c0.126,0.127,0.255,0.252,0.384,0.377c0.053,0.05,0.104,0.103,0.157,0.149
		c0.174,0.163,0.349,0.322,0.526,0.479c0.003,0.003,0.005,0.005,0.008,0.007c0.03,0.026,0.062,0.053,0.093,0.078
		c0.157,0.136,0.316,0.271,0.479,0.404c0.065,0.053,0.132,0.104,0.198,0.158c0.132,0.104,0.265,0.209,0.398,0.312
		c0.07,0.055,0.142,0.108,0.214,0.162c0.146,0.108,0.297,0.216,0.446,0.321c0.056,0.039,0.108,0.078,0.163,0.115
		c0.016,0.011,0.029,0.021,0.045,0.031c0.144,0.1,0.288,0.192,0.436,0.287c0.062,0.042,0.125,0.085,0.188,0.126
		c0.226,0.143,0.451,0.281,0.682,0.416c0.062,0.036,0.126,0.071,0.188,0.106c0.169,0.098,0.338,0.192,0.511,0.287
		c0.094,0.05,0.188,0.097,0.282,0.146c0.122,0.063,0.242,0.128,0.365,0.189c0.028,0.014,0.058,0.026,0.085,0.041
		c0.05,0.022,0.1,0.047,0.148,0.071c0.191,0.092,0.386,0.182,0.579,0.269c0.042,0.019,0.082,0.037,0.123,0.055
		c0.224,0.099,0.448,0.191,0.677,0.281c0.055,0.021,0.108,0.043,0.164,0.064c0.21,0.08,0.424,0.16,0.638,0.235
		c0.026,0.01,0.053,0.02,0.08,0.028c0.233,0.082,0.473,0.158,0.711,0.231c0.057,0.018,0.114,0.034,0.172,0.052
		c0.243,0.073,0.483,0.161,0.734,0.208c15.926,2.903,20.553-9.571,20.553-9.571c-3.886,5.062-10.783,6.396-17.317,4.911
		c-0.247-0.058-0.486-0.134-0.729-0.205c-0.062-0.019-0.121-0.036-0.183-0.055c-0.234-0.072-0.47-0.148-0.702-0.229
		c-0.031-0.012-0.063-0.022-0.097-0.035c-0.208-0.072-0.414-0.149-0.619-0.229c-0.058-0.023-0.114-0.045-0.174-0.068
		c-0.225-0.089-0.447-0.182-0.668-0.276c-0.046-0.021-0.089-0.04-0.134-0.061c-0.189-0.086-0.377-0.172-0.563-0.262
		c-0.055-0.026-0.107-0.052-0.163-0.079c-0.146-0.071-0.291-0.147-0.437-0.222c-0.097-0.052-0.195-0.1-0.291-0.152
		c-0.177-0.095-0.351-0.192-0.522-0.293c-0.059-0.033-0.117-0.064-0.177-0.099c-0.229-0.136-0.457-0.275-0.681-0.417
		c-0.062-0.039-0.123-0.082-0.186-0.122c-0.161-0.105-0.323-0.212-0.483-0.322c-0.053-0.036-0.104-0.074-0.155-0.109
		c-0.154-0.108-0.307-0.22-0.458-0.331c-0.069-0.052-0.137-0.104-0.203-0.153c-0.139-0.105-0.276-0.213-0.413-0.322
		c-0.062-0.05-0.124-0.1-0.185-0.148c-0.174-0.143-0.346-0.286-0.515-0.434c-0.019-0.016-0.037-0.03-0.058-0.047
		c-0.183-0.161-0.363-0.326-0.541-0.492c-0.052-0.05-0.102-0.098-0.151-0.146c-0.133-0.126-0.263-0.252-0.39-0.382
		c-0.051-0.051-0.103-0.101-0.151-0.15c-0.162-0.166-0.321-0.335-0.479-0.505c-0.008-0.01-0.016-0.018-0.023-0.025
		c-0.164-0.18-0.325-0.364-0.482-0.551c-0.043-0.052-0.085-0.101-0.127-0.15c-0.118-0.142-0.234-0.285-0.35-0.431
		c-0.041-0.053-0.085-0.105-0.127-0.158c-0.138-0.179-0.271-0.355-0.401-0.536c-3.628-4.948-4.933-11.774-2.032-17.379"/>
	<path fill="#0A69AD" d="M495.74,508.221c-2.381,3.428-2.252,8.016-0.396,11.641c0.312,0.606,0.662,1.196,1.055,1.758
		c0.356,0.512,0.753,1.12,1.227,1.531c0.171,0.188,0.351,0.374,0.534,0.555c0.046,0.047,0.094,0.093,0.141,0.139
		c0.178,0.173,0.358,0.344,0.546,0.508c0.009,0.007,0.016,0.015,0.022,0.02c0.002,0.003,0.004,0.004,0.005,0.006
		c0.207,0.182,0.421,0.355,0.638,0.527c0.048,0.037,0.097,0.074,0.146,0.112c0.218,0.166,0.438,0.33,0.667,0.486
		c0.007,0.005,0.013,0.01,0.02,0.015c0.102,0.07,0.203,0.135,0.305,0.201c0.05,0.031,0.096,0.065,0.145,0.095
		c0.163,0.104,0.327,0.206,0.495,0.305c0.022,0.015,0.047,0.025,0.069,0.04c0.145,0.083,0.291,0.165,0.438,0.244
		c0.051,0.027,0.104,0.055,0.155,0.08c0.101,0.054,0.202,0.107,0.306,0.158c0.015,0.008,0.031,0.016,0.046,0.021
		c0.21,0.104,0.422,0.203,0.638,0.298c0.047,0.021,0.095,0.038,0.142,0.058c0.173,0.073,0.348,0.146,0.522,0.212
		c0.074,0.028,0.149,0.057,0.225,0.082c0.159,0.061,0.317,0.113,0.479,0.168c0.073,0.022,0.146,0.048,0.219,0.069
		c0.229,0.07,0.454,0.16,0.692,0.2c12.297,2.037,15.136-7.432,15.136-7.432c-2.559,3.687-7.515,5.444-12.804,4.071
		c-0.233-0.062-0.466-0.129-0.696-0.201c-0.069-0.021-0.14-0.044-0.209-0.066c-0.164-0.054-0.326-0.109-0.486-0.168
		c-0.074-0.027-0.147-0.055-0.221-0.082c-0.177-0.067-0.352-0.139-0.523-0.211c-0.047-0.021-0.096-0.039-0.143-0.061
		c-0.217-0.095-0.431-0.193-0.642-0.299c-0.108-0.053-0.215-0.108-0.321-0.163c-0.062-0.032-0.124-0.063-0.186-0.096
		c-0.137-0.074-0.273-0.151-0.407-0.229c-0.031-0.019-0.065-0.036-0.098-0.056c-0.166-0.099-0.33-0.197-0.492-0.301
		c-0.051-0.032-0.099-0.066-0.148-0.101c-0.106-0.068-0.215-0.14-0.318-0.211c-0.229-0.156-0.447-0.32-0.665-0.486
		c-0.051-0.038-0.102-0.077-0.149-0.117c-2.314-1.827-4.148-4.325-5.021-7.157c-0.914-2.938-0.718-6.234,0.866-8.91"/>
	<path fill="#0A69AD" d="M504.338,505.241c-1.404,2.064-1.542,4.632-0.568,6.914c1.027,2.422,3.134,4.321,5.591,5.223
		c0.102,0.038,0.202,0.072,0.306,0.106c0.045,0.014,0.089,0.028,0.134,0.043c0.146,0.045,0.289,0.098,0.438,0.126
		c6.79,1.312,8.632-3.484,9.122-4.19c-1.613,2.323-4.324,2.881-7.651,2.073c-0.263-0.063-0.552-0.159-0.805-0.249
		c-0.325-0.115-0.646-0.247-0.956-0.396c-0.59-0.283-1.153-0.628-1.677-1.021c-2.977-2.259-4.824-6.567-2.883-10.076"/>
	<path fill="#0A69AD" d="M580.81,545.484l-1.958,4.457h-2.159l0.177-4.051l-1.591,4.051h-2.093l-0.055-4.457l0.23-1.102h1.48
		l-0.285,4.402l1.646-4.402h2.065l-0.149,4.458l1.631-4.458h1.291L580.81,545.484L580.81,545.484z"/>
	<path fill="#0A69AD" d="M584.219,546.804c0.19-0.87,0.137-1.032-0.312-1.032h-0.681l-0.435,2.038l-0.666,2.134h-1.264l1.031-4.837
		l0.15-0.707h1.154l0.149,0.324c0,0,0.666-0.394,1.317-0.394c1.387,0,1.278,1.046,0.979,2.474H584.219L584.219,546.804z"/>
	<path fill="#0A69AD" d="M588.325,543.69c-0.558,0-0.91-0.163-0.774-0.843c0.149-0.68,0.584-0.844,1.128-0.844
		s0.91,0.164,0.762,0.844C589.303,543.514,588.869,543.69,588.325,543.69L588.325,543.69z M587.727,549.942h-1.251l0.245-2.176
		l0.436-2.011l-0.869-0.189l0.244-1.184h2.378L587.727,549.942L587.727,549.942z"/>
	<path fill="#0A69AD" d="M593.149,545.562l-1.562,0.191l-0.449,2.119c-0.123,0.585-0.123,0.748,0.396,0.748h1.046l-0.217,1.114
		c0,0-0.951,0.286-1.359,0.286c-1.604,0-1.591-0.885-1.305-2.203l0.435-2.079l-0.869-0.189l0.259-1.183h0.91l0.518-1.4h1.236
		l-0.301,1.4h1.522L593.149,545.562L593.149,545.562z"/>
	<path fill="#0A69AD" d="M596.396,545.634c-0.732,0-1.114,0.382-1.264,1.062l2.093-0.178
		C597.321,546.056,597.226,545.634,596.396,545.634L596.396,545.634z M594.929,547.699c-0.096,0.681,0.163,0.911,1.032,0.911h2.188
		l-0.218,1.032c0,0-1.317,0.366-2.297,0.366c-2.433,0-2.46-1.371-2.146-2.84c0.312-1.44,0.869-2.867,3.22-2.867
		c2.271,0,2.38,1.372,1.821,3.396L594.929,547.699L594.929,547.699z"/>
	<path fill="#0A69AD" d="M603.516,549.941h-1.25l0.245-2.176l0.884-4.131l-0.87-0.204l0.259-1.183h2.379L603.516,549.941
		L603.516,549.941z"/>
	<path fill="#0A69AD" d="M608.033,545.634c-0.734,0-1.114,0.382-1.266,1.062l2.094-0.178
		C608.956,546.056,608.861,545.634,608.033,545.634L608.033,545.634z M606.564,547.699c-0.096,0.681,0.164,0.911,1.031,0.911h2.189
		l-0.218,1.032c0,0-1.319,0.366-2.298,0.366c-2.433,0-2.459-1.371-2.146-2.84c0.312-1.44,0.87-2.867,3.221-2.867
		c2.271,0,2.379,1.372,1.822,3.396L606.564,547.699L606.564,547.699z"/>
	<path fill="#0A69AD" d="M615.899,545.702c0,0-1.591,0.013-2.024,0.013c-0.925,0-1.02,0.285-1.087,0.584l-0.056,0.271l2.936,0.219
		c0,0,0.015,0.938-0.108,1.467c-0.177,0.884-1.088,1.78-2.73,1.78c-0.816,0-2.134-0.312-2.134-0.312l0.229-1.073h2.025
		c0.896,0,1.02-0.245,1.074-0.489l0.067-0.354l-2.882-0.218c0,0-0.108-0.721,0.041-1.439c0.218-0.979,1.113-1.821,2.759-1.821
		c0.814,0,2.133,0.298,2.133,0.298L615.899,545.702L615.899,545.702z"/>
	<path fill="#0A69AD" d="M621.363,545.702c0,0-1.589,0.013-2.025,0.013c-0.924,0-1.02,0.285-1.087,0.584l-0.055,0.271l2.936,0.219
		c0,0,0.014,0.938-0.108,1.467c-0.177,0.884-1.087,1.78-2.732,1.78c-0.814,0-2.133-0.312-2.133-0.312l0.229-1.073h2.025
		c0.896,0,1.02-0.245,1.074-0.489l0.066-0.354l-2.881-0.218c0,0-0.108-0.721,0.04-1.439c0.218-0.979,1.114-1.821,2.76-1.821
		c0.814,0,2.133,0.298,2.133,0.298L621.363,545.702L621.363,545.702z"/>
	<path fill="#0A69AD" d="M623.074,550.826h-1.086l0.039-0.816c-0.396-0.024-0.599-0.311-0.502-0.788
		c0.147-0.679,0.569-0.842,1.127-0.842c0.545,0,0.909,0.163,0.762,0.842L623.074,550.826L623.074,550.826z"/>
	<path fill="#0A69AD" d="M630.344,545.757c-0.813,0-1.1,0.489-1.291,1.386c-0.188,0.897-0.135,1.428,0.681,1.428h1.129l0.625-2.812
		L630.344,545.757L630.344,545.757z M632.207,549.222l-0.15,0.722l-1.141-0.015l-0.164-0.353c0,0-1.006,0.434-1.684,0.434
		c-1.74,0-1.822-1.427-1.511-2.867c0.312-1.468,0.992-2.854,2.72-2.854c0.625,0,1.467,0.312,1.467,0.312l0.692-2.352h1.25
		L632.207,549.222L632.207,549.222z"/>
	<path fill="#0A69AD" d="M636.705,545.702c-1.059,0-1.4,0.597-1.59,1.467c-0.178,0.884-0.094,1.481,0.951,1.481
		c1.088,0,1.414-0.585,1.604-1.481C637.861,546.325,637.807,545.702,636.705,545.702L636.705,545.702z M635.781,550.023
		c-2.242,0-2.42-1.399-2.121-2.854c0.313-1.454,1.102-2.84,3.346-2.84c2.228,0,2.433,1.386,2.119,2.84
		C638.812,548.65,638.023,550.023,635.781,550.023z"/>
	<path fill="#0A69AD" d="M648.504,549.941l0.244-2.147l0.123-0.611c0.176-0.814,0.285-1.413-0.572-1.413h-0.666
		c0.027,0.422-0.053,0.896-0.162,1.399l-0.584,2.772h-1.264l0.244-2.147l0.121-0.611c0.178-0.814,0.285-1.413-0.57-1.413h-0.543
		l-0.896,4.172h-1.454l1.182-5.558h1.143l0.177,0.339c0,0,0.774-0.408,1.399-0.408c0.476,0,0.83,0.219,0.951,0.489
		c0.271-0.148,1.047-0.489,1.605-0.489c1.737,0,1.684,1.413,1.37,2.854l-0.584,2.771L648.504,549.941L648.504,549.941z"/>
	<path fill="#0A69AD" d="M654.279,545.702c-1.062,0-1.4,0.597-1.59,1.467c-0.177,0.884-0.095,1.481,0.95,1.481
		c1.088,0,1.414-0.585,1.604-1.481C655.436,546.325,655.381,545.702,654.279,545.702z M653.355,550.023
		c-2.242,0-2.421-1.399-2.119-2.854c0.312-1.454,1.1-2.84,3.342-2.84c2.229,0,2.434,1.386,2.119,2.84
		C656.387,548.65,655.598,550.023,653.355,550.023z"/>
	<path fill="#0A69AD" d="M660.475,546.804c0.191-0.87,0.138-1.032-0.312-1.032h-0.68l-0.437,2.038l-0.666,2.134h-1.264l1.033-4.837
		l0.149-0.707h1.154l0.15,0.324c0,0,0.666-0.394,1.317-0.394c1.387,0,1.277,1.046,0.978,2.474H660.475L660.475,546.804z"/>
	<path fill="#0A69AD" d="M665.342,545.634c-0.731,0-1.113,0.382-1.262,1.062l2.092-0.178
		C666.268,546.056,666.172,545.634,665.342,545.634L665.342,545.634z M663.875,547.699c-0.094,0.681,0.162,0.911,1.033,0.911h2.188
		l-0.217,1.032c0,0-1.318,0.366-2.297,0.366c-2.434,0-2.459-1.371-2.148-2.84c0.312-1.44,0.871-2.867,3.222-2.867
		c2.27,0,2.379,1.372,1.821,3.396L663.875,547.699L663.875,547.699z"/>
	<path fill="#0A69AD" d="M668.697,550.024c-0.572,0-0.924-0.163-0.773-0.829c0.135-0.682,0.558-0.844,1.127-0.844
		c0.529,0,0.896,0.162,0.763,0.844C669.662,549.848,669.227,550.024,668.697,550.024z"/>
</g>
<g id="layer1" transform="translate(-115.94417,-501.42131)" opacity="0.1">
	<path id="path22_1_" fill="#404238" d="M1032.479,624.053c-0.142,0.002-0.283,0.035-0.409,0.109c-0.252,0.147-0.41,0.419-0.41,0.71
		v20.897c0,0.206-0.096,0.39-0.272,0.492c-0.179,0.104-0.396,0.104-0.573,0l-3.414-1.967c-0.509-0.293-1.131-0.293-1.641,0
		l-13.631,7.867c-0.51,0.294-0.818,0.859-0.818,1.448v15.734c0,0.588,0.31,1.126,0.818,1.421l13.631,7.867
		c0.511,0.294,1.13,0.294,1.641,0l13.631-7.867c0.509-0.295,0.819-0.833,0.819-1.421v-39.228c0-0.597-0.325-1.156-0.848-1.448
		l-8.113-4.534C1032.763,624.064,1032.621,624.052,1032.479,624.053L1032.479,624.053z M944.792,643.694
		c-0.26,0.011-0.504,0.057-0.736,0.191l-13.633,7.867c-0.508,0.294-0.818,0.829-0.818,1.421l0.026,21.116
		c0,0.294,0.151,0.566,0.409,0.711c0.254,0.151,0.567,0.151,0.82,0l8.086-4.645c0.512-0.304,0.847-0.834,0.847-1.421v-9.861
		c0-0.588,0.311-1.128,0.819-1.42l3.441-1.994c0.258-0.148,0.532-0.219,0.819-0.219c0.28,0,0.569,0.069,0.819,0.219l3.44,1.994
		c0.511,0.292,0.82,0.832,0.82,1.42v9.861c0,0.587,0.338,1.12,0.847,1.421l8.086,4.645c0.254,0.151,0.567,0.151,0.819,0
		c0.251-0.145,0.409-0.417,0.409-0.711l0.026-21.116c0-0.592-0.308-1.127-0.818-1.421l-13.631-7.867
		c-0.23-0.135-0.477-0.181-0.737-0.191H944.792L944.792,643.694z M1067.282,643.885c-0.285,0-0.564,0.072-0.819,0.219l-13.632,7.867
		c-0.51,0.295-0.818,0.832-0.818,1.421v15.734c0,0.592,0.332,1.128,0.847,1.421l13.521,7.703c0.499,0.285,1.108,0.307,1.611,0.027
		l8.195-4.562c0.26-0.146,0.436-0.414,0.437-0.711c0.002-0.297-0.152-0.562-0.409-0.71l-13.714-7.867
		c-0.256-0.146-0.437-0.443-0.437-0.738v-4.917c0-0.294,0.183-0.563,0.437-0.71l4.262-2.459c0.254-0.146,0.565-0.146,0.82,0
		l4.261,2.459c0.255,0.146,0.41,0.416,0.41,0.71v3.879c0,0.295,0.155,0.563,0.409,0.711c0.256,0.146,0.564,0.147,0.82,0l8.167-4.754
		c0.508-0.294,0.818-0.834,0.818-1.42v-3.797c0-0.587-0.311-1.126-0.818-1.421l-13.55-7.867
		C1067.847,643.955,1067.566,643.886,1067.282,643.885L1067.282,643.885z M1026.524,655.632c0.07,0,0.154,0.018,0.219,0.054
		l4.672,2.704c0.126,0.074,0.218,0.209,0.218,0.355v5.409c0,0.146-0.091,0.282-0.218,0.355l-4.672,2.704
		c-0.127,0.072-0.282,0.072-0.409,0l-4.672-2.704c-0.127-0.074-0.218-0.209-0.218-0.355v-5.409c0-0.146,0.091-0.281,0.218-0.355
		l4.672-2.703C1026.397,655.65,1026.454,655.632,1026.524,655.632L1026.524,655.632z"/>
	<path id="path28" fill="#87C540" d="M1108.121,643.503c-0.473,0-0.933,0.098-1.339,0.327l-12.866,7.431
		c-0.833,0.479-1.338,1.386-1.338,2.35v14.833c0,0.963,0.505,1.868,1.338,2.349l3.36,1.94c1.633,0.804,2.233,0.792,2.978,0.792
		c2.417,0,3.797-1.467,3.797-4.016v-14.643c0-0.207-0.18-0.354-0.383-0.354h-1.61c-0.207,0-0.383,0.147-0.383,0.354v14.643
		c0,1.13-1.178,2.266-3.088,1.312l-3.496-2.049c-0.123-0.067-0.219-0.187-0.219-0.328v-14.833c0-0.141,0.095-0.284,0.219-0.355
		l12.84-7.403c0.119-0.068,0.264-0.068,0.383,0l12.839,7.403c0.123,0.073,0.219,0.21,0.219,0.355v14.833
		c0,0.142-0.071,0.287-0.19,0.354l-12.866,7.403c-0.11,0.065-0.263,0.065-0.384,0l-3.305-1.967c-0.099-0.058-0.232-0.053-0.328,0
		c-0.913,0.518-1.084,0.577-1.938,0.874c-0.211,0.073-0.531,0.188,0.108,0.547l4.315,2.54c0.411,0.238,0.869,0.355,1.339,0.355
		c0.477,0,0.928-0.117,1.339-0.355l12.866-7.403c0.832-0.484,1.339-1.386,1.339-2.349V653.61c0-0.964-0.507-1.868-1.339-2.35
		l-12.866-7.431C1109.057,643.601,1108.594,643.503,1108.121,643.503L1108.121,643.503z M985.74,643.803
		c-0.284,0-0.565,0.072-0.819,0.219l-13.631,7.84c-0.51,0.294-0.82,0.86-0.82,1.448v15.734c0,0.589,0.312,1.127,0.82,1.421
		l13.631,7.867c0.51,0.294,1.129,0.294,1.64,0l13.632-7.867c0.509-0.294,0.818-0.832,0.818-1.421V653.31
		c0-0.589-0.311-1.154-0.818-1.448l-13.632-7.84C986.305,643.875,986.024,643.803,985.74,643.803z M1127.216,643.886v0.382h1.065
		v2.813h0.437v-2.813h1.094v-0.382H1127.216z M1130.193,643.886v3.195h0.41v-1.885c0-0.076,0.003-0.195,0-0.354
		c-0.007-0.162,0-0.304,0-0.383v-0.082l0.9,2.704h0.438l0.929-2.704c0,0.172-0.021,0.338-0.027,0.491c-0.001,0.149,0,0.262,0,0.328
		v1.885h0.41v-3.196h-0.602l-0.93,2.705l-0.899-2.705L1130.193,643.886L1130.193,643.886z M1111.563,654.103
		c-3.664,0-5.848,1.559-5.848,4.151c0,2.812,2.166,3.586,5.684,3.934c4.207,0.412,4.533,1.029,4.533,1.857
		c0,1.437-1.145,2.049-3.852,2.049c-3.4,0-4.146-0.849-4.398-2.54c-0.027-0.182-0.168-0.328-0.354-0.328h-1.667
		c-0.205,0-0.382,0.177-0.382,0.383c0,2.165,1.178,4.726,6.802,4.726c4.071,0,6.42-1.598,6.42-4.398
		c0-2.775-1.896-3.521-5.846-4.043c-3.991-0.527-4.371-0.786-4.371-1.721c0-0.771,0.322-1.803,3.278-1.803
		c2.64,0,3.615,0.569,4.016,2.35c0.034,0.167,0.184,0.3,0.354,0.3h1.667c0.103,0,0.201-0.062,0.271-0.136
		c0.07-0.079,0.119-0.168,0.109-0.273C1117.724,655.544,1115.681,654.103,1111.563,654.103L1111.563,654.103z M1067.255,657.844
		c-0.055,0-0.115,0-0.164,0.027l-2.621,1.53c-0.1,0.056-0.164,0.16-0.164,0.272v3.006c0,0.112,0.064,0.217,0.164,0.273l2.621,1.502
		c0.1,0.057,0.203,0.057,0.302,0l2.622-1.502c0.098-0.057,0.163-0.161,0.163-0.273v-3.006c0-0.112-0.065-0.216-0.163-0.272
		l-2.622-1.53C1067.343,657.843,1067.309,657.844,1067.255,657.844z"/>
</g>
</svg>
